<svg xmlns="http://www.w3.org/2000/svg" width="40" height="40" viewBox="0 0 40 40" fill="none">
  <path
    d="M19.6876 28.125H4.6875C3.82594 28.125 3.125 27.4241 3.125 26.5625V12.2313C3.61406 12.4047 4.13977 12.5 4.6875 12.5H31.25V16.5625C31.25 17.4255 31.9495 18.125 32.8125 18.125C33.6755 18.125 34.375 17.4255 34.375 16.5625V10.9375C34.375 10.0746 33.6755 9.37502 32.8125 9.37502H31.25V4.68752C31.25 3.82455 30.5505 3.12502 29.6875 3.12502H19.3973L16.7299 0.457676C16.1197 -0.152559 15.1303 -0.152559 14.5202 0.457676L11.8527 3.12502H4.6875C2.10281 3.12502 0 5.22783 0 7.81252V26.5625C0 29.1472 2.10281 31.25 4.6875 31.25H19.6876C20.5505 31.25 21.2501 30.5505 21.2501 29.6875C21.2501 28.8246 20.5505 28.125 19.6876 28.125ZM28.125 6.25002V9.37502H25.6473L22.5223 6.25002H28.125ZM15.625 3.77221L21.2278 9.37502H10.0222L15.625 3.77221ZM4.6875 6.25002H8.72773L5.60273 9.37502H4.6875C3.82594 9.37502 3.125 8.67408 3.125 7.81252C3.125 6.95096 3.82594 6.25002 4.6875 6.25002Z"
    fill="black" />
  <path
    d="M39.1362 24.5402L32.8862 21.4152C32.4463 21.1953 31.9286 21.1953 31.4887 21.4152L25.2387 24.5402C24.7094 24.805 24.375 25.3459 24.375 25.9378V29.0628C24.375 36.1964 31.1983 39.69 31.4887 39.8353C31.7087 39.9453 31.9481 40.0003 32.1875 40.0003C32.4269 40.0003 32.6663 39.9453 32.8862 39.8353C33.1767 39.69 40 36.1964 40 29.0628V25.9378C40 25.3459 39.6656 24.805 39.1362 24.5402ZM36.875 29.0628C36.875 31.1978 35.9991 33.17 34.2716 34.9247C33.5049 35.7035 32.7257 36.2727 32.1876 36.6233C31.6488 36.2724 30.8699 35.7033 30.1034 34.9247C28.3759 33.17 27.5 31.1978 27.5 29.0628V26.9035L32.1875 24.5597L36.875 26.9035V29.0628Z"
    fill="#2D9AD7" />
  <path
    d="M7.8125 25C8.67544 25 9.375 24.3004 9.375 23.4375C9.375 22.5746 8.67544 21.875 7.8125 21.875C6.94956 21.875 6.25 22.5746 6.25 23.4375C6.25 24.3004 6.94956 25 7.8125 25Z"
    fill="black" />
  <path
    d="M7.8125 18.75C8.67544 18.75 9.375 18.0504 9.375 17.1875C9.375 16.3246 8.67544 15.625 7.8125 15.625C6.94956 15.625 6.25 16.3246 6.25 17.1875C6.25 18.0504 6.94956 18.75 7.8125 18.75Z"
    fill="black" />
</svg>