<svg xmlns="http://www.w3.org/2000/svg" width="40" height="40" viewBox="0 0 40 40" fill="none">
  <g clip-path="url(#clip0_296_6156)">
    <path
      d="M28.7112 39.9416C29.9564 39.9384 31.1271 39.4517 32.0076 38.5712L38.6252 31.9536C39.9864 30.5924 40.376 28.5697 39.6177 26.8004L36.309 19.0799C36.0743 18.5322 35.7403 18.0396 35.3164 17.6157C34.0179 16.3173 32.0688 15.898 30.3503 16.5476L23.5693 19.1142L19.873 15.418C18.0486 13.5935 15.08 13.5936 13.2555 15.418C11.431 17.2424 11.431 20.2111 13.2555 22.0355L21.8268 30.6067H19.653C17.0728 30.6067 14.9737 32.7058 14.9737 35.286C14.9737 37.8662 17.0728 39.9653 19.653 39.9653L28.7112 39.9416ZM25.5923 33.7262C26.2232 33.7262 26.792 33.3462 27.0334 32.7634C27.2749 32.1805 27.1414 31.5097 26.6953 31.0636L15.4615 19.8297C14.8533 19.2215 14.8533 18.232 15.4615 17.6239C16.0696 17.0157 17.0592 17.0157 17.6673 17.6239L22.0761 22.0327C22.5098 22.4665 23.1576 22.6057 23.7312 22.3886L31.4541 19.4654C32.0273 19.2487 32.6776 19.3884 33.1105 19.8215C33.2526 19.9635 33.364 20.1275 33.4417 20.3088L36.7504 28.0292C37.0032 28.6192 36.8733 29.2938 36.4193 29.7478L29.8017 36.3653C29.5082 36.6588 29.118 36.821 28.703 36.822L19.6529 36.8458C18.7929 36.8458 18.0932 36.146 18.0932 35.286C18.0932 34.4259 18.7929 33.7262 19.6529 33.7262H25.5923Z"
      fill="#2D9AD7" />
    <path
      d="M10.9183 39.9649H7.79881C3.49854 39.9649 -1.90735e-06 36.4664 -1.90735e-06 32.1661V7.83384C-1.90735e-06 3.53358 3.49854 0.0350342 7.79881 0.0350342H16.5335C20.8337 0.0350342 24.3323 3.53358 24.3323 7.83384V11.7248C24.3323 12.5863 23.634 13.2846 22.7725 13.2846C21.9111 13.2846 21.2128 12.5863 21.2128 11.7248V7.83384C21.2128 5.25368 19.1136 3.15456 16.5335 3.15456H7.79881C5.21865 3.15456 3.11952 5.25368 3.11952 7.83384V32.1661C3.11952 34.7463 5.21865 36.8454 7.79881 36.8454H10.9183C11.7798 36.8454 12.4781 37.5437 12.4781 38.4052C12.4781 39.2666 11.7798 39.9649 10.9183 39.9649Z"
      fill="black" />
    <path
      d="M13.414 9.39363H10.9184C10.0569 9.39363 9.35861 8.69533 9.35861 7.83387C9.35861 6.97241 10.0569 6.27411 10.9184 6.27411H13.414C14.2754 6.27411 14.9738 6.97241 14.9738 7.83387C14.9738 8.69533 14.2754 9.39363 13.414 9.39363Z"
      fill="black" />
  </g>
  <defs>
    <clipPath id="clip0_296_6156">
      <rect width="40" height="40" fill="white" transform="matrix(-1 0 0 1 40 0)" />
    </clipPath>
  </defs>
</svg>