<svg xmlns="http://www.w3.org/2000/svg" width="2680" height="1609" viewBox="0 0 2680 1609"
  fill="none">
  <g filter="url(#filter0_f_338_1814)">
    <ellipse cx="298.201" cy="297.963" rx="298.201" ry="297.963"
      transform="matrix(-1 0 0 1 2111.33 400.659)" fill="url(#paint0_linear_338_1814)" />
  </g>
  <g filter="url(#filter1_f_338_1814)">
    <rect width="286.564" height="406.247" transform="matrix(-1 0 0 1 1956.42 676.093)"
      fill="url(#paint1_linear_338_1814)" />
  </g>
  <g clip-path="url(#clip0_338_1814)">
    <g filter="url(#filter2_f_338_1814)">
      <ellipse cx="603.202" cy="1205.97" rx="177.161" ry="177.02"
        transform="rotate(180 603.202 1205.97)" fill="url(#paint2_linear_338_1814)" />
    </g>
    <g filter="url(#filter3_f_338_1814)">
      <rect x="688.326" y="1219.36" width="170.248" height="241.352"
        transform="rotate(180 688.326 1219.36)" fill="url(#paint3_linear_338_1814)" />
    </g>
  </g>
  <g opacity="0.3">
    <mask id="mask0_338_1814" style="mask-type:luminance" maskUnits="userSpaceOnUse" x="1411"
      y="589" width="365" height="365">
      <path
        d="M1593.42 953.555C1694.03 953.555 1775.58 871.996 1775.58 771.388C1775.58 670.78 1694.03 589.221 1593.42 589.221C1492.81 589.221 1411.25 670.78 1411.25 771.388C1411.25 871.996 1492.81 953.555 1593.42 953.555Z"
        fill="white" />
    </mask>
    <g mask="url(#mask0_338_1814)">
      <path d="M1584.26 474.992L1289.92 769.337L1291.3 770.718L1585.64 476.372L1584.26 474.992Z"
        fill="#FAF8F8" fill-opacity="0.5" />
      <path d="M1593.09 483.683L1298.74 778.028L1300.12 779.408L1594.47 485.063L1593.09 483.683Z"
        fill="#FAF8F8" fill-opacity="0.5" />
      <path d="M1601.64 492.374L1307.29 786.719L1308.67 788.1L1603.02 493.755L1601.64 492.374Z"
        fill="#FAF8F8" fill-opacity="0.5" />
      <path d="M1610.46 501.066L1316.12 795.411L1317.5 796.792L1611.84 502.447L1610.46 501.066Z"
        fill="#FAF8F8" fill-opacity="0.5" />
      <path d="M1619.01 509.757L1324.67 804.102L1326.05 805.483L1620.39 511.138L1619.01 509.757Z"
        fill="#FAF8F8" fill-opacity="0.5" />
      <path d="M1627.84 518.448L1333.49 812.793L1334.87 814.174L1629.22 519.829L1627.84 518.448Z"
        fill="#FAF8F8" fill-opacity="0.5" />
      <path d="M1636.39 527.14L1342.04 821.485L1343.42 822.865L1637.77 528.52L1636.39 527.14Z"
        fill="#FAF8F8" fill-opacity="0.5" />
      <path d="M1645.21 535.831L1350.87 830.176L1352.25 831.557L1646.59 537.212L1645.21 535.831Z"
        fill="#FAF8F8" fill-opacity="0.5" />
      <path d="M1653.76 544.523L1359.42 838.868L1360.8 840.248L1655.14 545.903L1653.76 544.523Z"
        fill="#FAF8F8" fill-opacity="0.5" />
      <path d="M1662.59 553.214L1368.24 847.559L1369.62 848.94L1663.97 554.595L1662.59 553.214Z"
        fill="#FAF8F8" fill-opacity="0.5" />
      <path d="M1671.27 562.043L1376.93 856.388L1378.31 857.769L1672.65 563.424L1671.27 562.043Z"
        fill="#FAF8F8" fill-opacity="0.5" />
      <path d="M1679.96 570.596L1385.62 864.941L1387 866.322L1681.34 571.977L1679.96 570.596Z"
        fill="#FAF8F8" fill-opacity="0.5" />
      <path d="M1688.65 579.426L1394.3 873.771L1395.68 875.152L1690.03 580.807L1688.65 579.426Z"
        fill="#FAF8F8" fill-opacity="0.5" />
      <path d="M1697.34 587.979L1402.99 882.324L1404.37 883.705L1698.72 589.36L1697.34 587.979Z"
        fill="#FAF8F8" fill-opacity="0.5" />
      <path d="M1706.02 596.808L1411.68 891.153L1413.06 892.534L1707.4 598.189L1706.02 596.808Z"
        fill="#FAF8F8" fill-opacity="0.5" />
      <path d="M1714.71 605.362L1420.37 899.707L1421.75 901.088L1716.09 606.743L1714.71 605.362Z"
        fill="#FAF8F8" fill-opacity="0.5" />
      <path d="M1723.4 614.192L1429.05 908.537L1430.43 909.917L1724.78 615.572L1723.4 614.192Z"
        fill="#FAF8F8" fill-opacity="0.5" />
      <path d="M1732.09 622.745L1437.74 917.09L1439.12 918.47L1733.47 624.125L1732.09 622.745Z"
        fill="#FAF8F8" fill-opacity="0.5" />
      <path d="M1740.77 631.574L1446.43 925.919L1447.81 927.3L1742.15 632.955L1740.77 631.574Z"
        fill="#FAF8F8" fill-opacity="0.5" />
      <path d="M1749.46 640.128L1455.12 934.473L1456.5 935.853L1750.84 641.508L1749.46 640.128Z"
        fill="#FAF8F8" fill-opacity="0.5" />
      <path d="M1758.29 648.819L1463.94 943.164L1465.32 944.545L1759.67 650.2L1758.29 648.819Z"
        fill="#FAF8F8" fill-opacity="0.5" />
      <path d="M1766.83 657.51L1472.49 951.855L1473.87 953.236L1768.21 658.891L1766.83 657.51Z"
        fill="#FAF8F8" fill-opacity="0.5" />
      <path d="M1775.66 666.201L1481.31 960.546L1482.7 961.927L1777.04 667.582L1775.66 666.201Z"
        fill="#FAF8F8" fill-opacity="0.5" />
      <path d="M1784.21 674.893L1489.86 969.238L1491.24 970.618L1785.59 676.273L1784.21 674.893Z"
        fill="#FAF8F8" fill-opacity="0.5" />
      <path d="M1793.03 683.584L1498.69 977.929L1500.07 979.31L1794.42 684.965L1793.03 683.584Z"
        fill="#FAF8F8" fill-opacity="0.5" />
      <path d="M1801.58 692.276L1507.24 986.621L1508.62 988.001L1802.96 693.656L1801.58 692.276Z"
        fill="#FAF8F8" fill-opacity="0.5" />
      <path d="M1810.41 700.966L1516.06 995.312L1517.45 996.692L1811.79 702.347L1810.41 700.966Z"
        fill="#FAF8F8" fill-opacity="0.5" />
      <path d="M1818.96 709.658L1524.61 1004L1525.99 1005.38L1820.34 711.038L1818.96 709.658Z"
        fill="#FAF8F8" fill-opacity="0.5" />
      <path d="M1827.78 718.35L1533.44 1012.69L1534.82 1014.08L1829.16 719.73L1827.78 718.35Z"
        fill="#FAF8F8" fill-opacity="0.5" />
      <path d="M1836.33 727.041L1541.99 1021.39L1543.37 1022.77L1837.71 728.422L1836.33 727.041Z"
        fill="#FAF8F8" fill-opacity="0.5" />
      <path d="M1845.16 735.732L1550.81 1030.08L1552.19 1031.46L1846.54 737.113L1845.16 735.732Z"
        fill="#FAF8F8" fill-opacity="0.5" />
      <path d="M1853.71 744.424L1559.36 1038.77L1560.74 1040.15L1855.09 745.804L1853.71 744.424Z"
        fill="#FAF8F8" fill-opacity="0.5" />
      <path d="M1862.53 753.115L1568.19 1047.46L1569.57 1048.84L1863.91 754.496L1862.53 753.115Z"
        fill="#FAF8F8" fill-opacity="0.5" />
      <path d="M1871.08 761.806L1576.74 1056.15L1578.12 1057.53L1872.46 763.187L1871.08 761.806Z"
        fill="#FAF8F8" fill-opacity="0.5" />
      <path d="M1879.91 770.498L1585.56 1064.84L1586.94 1066.22L1881.29 771.878L1879.91 770.498Z"
        fill="#FAF8F8" fill-opacity="0.5" />
      <path d="M1888.46 779.189L1594.11 1073.53L1595.49 1074.91L1889.84 780.57L1888.46 779.189Z"
        fill="#FAF8F8" fill-opacity="0.5" />
    </g>
  </g>
  <g opacity="0.3">
    <mask id="mask1_338_1814" style="mask-type:luminance" maskUnits="userSpaceOnUse" x="281" y="792"
      width="304" height="304">
      <path
        d="M432.847 1095.8C516.687 1095.8 584.653 1027.83 584.653 943.99C584.653 860.149 516.687 792.184 432.847 792.184C349.007 792.184 281.041 860.149 281.041 943.99C281.041 1027.83 349.007 1095.8 432.847 1095.8Z"
        fill="white" />
    </mask>
    <g mask="url(#mask1_338_1814)">
      <path d="M425.218 696.993L179.931 942.28L181.081 943.431L426.369 698.143L425.218 696.993Z"
        fill="#FAF8F8" fill-opacity="0.5" />
      <path d="M432.573 704.235L187.285 949.523L188.436 950.673L433.723 705.386L432.573 704.235Z"
        fill="#FAF8F8" fill-opacity="0.5" />
      <path d="M439.697 711.478L194.409 956.766L195.56 957.916L440.847 712.629L439.697 711.478Z"
        fill="#FAF8F8" fill-opacity="0.5" />
      <path d="M447.051 718.721L201.764 964.009L202.914 965.159L448.202 719.872L447.051 718.721Z"
        fill="#FAF8F8" fill-opacity="0.5" />
      <path d="M454.176 725.964L208.889 971.251L210.039 972.402L455.327 727.114L454.176 725.964Z"
        fill="#FAF8F8" fill-opacity="0.5" />
      <path d="M461.531 733.207L216.243 978.494L217.394 979.645L462.681 734.357L461.531 733.207Z"
        fill="#FAF8F8" fill-opacity="0.5" />
      <path d="M468.655 740.449L223.367 985.737L224.518 986.887L469.805 741.6L468.655 740.449Z"
        fill="#FAF8F8" fill-opacity="0.5" />
      <path d="M476.009 747.692L230.722 992.98L231.872 994.13L477.16 748.843L476.009 747.692Z"
        fill="#FAF8F8" fill-opacity="0.5" />
      <path d="M483.133 754.935L237.846 1000.22L238.996 1001.37L484.284 756.086L483.133 754.935Z"
        fill="#FAF8F8" fill-opacity="0.5" />
      <path d="M490.488 762.178L245.2 1007.47L246.351 1008.62L491.638 763.328L490.488 762.178Z"
        fill="#FAF8F8" fill-opacity="0.5" />
      <path d="M497.728 769.536L252.44 1014.82L253.591 1015.97L498.878 770.686L497.728 769.536Z"
        fill="#FAF8F8" fill-opacity="0.5" />
      <path d="M504.967 776.664L259.68 1021.95L260.83 1023.1L506.118 777.814L504.967 776.664Z"
        fill="#FAF8F8" fill-opacity="0.5" />
      <path d="M512.206 784.022L266.919 1029.31L268.069 1030.46L513.357 785.172L512.206 784.022Z"
        fill="#FAF8F8" fill-opacity="0.5" />
      <path d="M519.446 791.149L274.158 1036.44L275.309 1037.59L520.596 792.299L519.446 791.149Z"
        fill="#FAF8F8" fill-opacity="0.5" />
      <path d="M526.685 798.507L281.397 1043.79L282.548 1044.94L527.836 799.657L526.685 798.507Z"
        fill="#FAF8F8" fill-opacity="0.5" />
      <path d="M533.924 805.635L288.637 1050.92L289.787 1052.07L535.075 806.785L533.924 805.635Z"
        fill="#FAF8F8" fill-opacity="0.5" />
      <path d="M541.164 812.993L295.876 1058.28L297.026 1059.43L542.314 814.143L541.164 812.993Z"
        fill="#FAF8F8" fill-opacity="0.5" />
      <path d="M548.404 820.12L303.116 1065.41L304.267 1066.56L549.554 821.271L548.404 820.12Z"
        fill="#FAF8F8" fill-opacity="0.5" />
      <path d="M555.643 827.478L310.355 1072.77L311.506 1073.92L556.794 828.629L555.643 827.478Z"
        fill="#FAF8F8" fill-opacity="0.5" />
      <path d="M562.882 834.606L317.595 1079.89L318.745 1081.04L564.033 835.757L562.882 834.606Z"
        fill="#FAF8F8" fill-opacity="0.5" />
      <path d="M570.237 841.849L324.949 1087.14L326.1 1088.29L571.387 842.999L570.237 841.849Z"
        fill="#FAF8F8" fill-opacity="0.5" />
      <path d="M577.361 849.091L332.073 1094.38L333.224 1095.53L578.511 850.242L577.361 849.091Z"
        fill="#FAF8F8" fill-opacity="0.5" />
      <path d="M584.715 856.334L339.428 1101.62L340.578 1102.77L585.866 857.485L584.715 856.334Z"
        fill="#FAF8F8" fill-opacity="0.5" />
      <path d="M591.84 863.577L346.553 1108.86L347.703 1110.01L592.991 864.727L591.84 863.577Z"
        fill="#FAF8F8" fill-opacity="0.5" />
      <path d="M599.195 870.82L353.907 1116.11L355.058 1117.26L600.345 871.97L599.195 870.82Z"
        fill="#FAF8F8" fill-opacity="0.5" />
      <path d="M606.319 878.063L361.031 1123.35L362.182 1124.5L607.469 879.213L606.319 878.063Z"
        fill="#FAF8F8" fill-opacity="0.5" />
      <path d="M613.673 885.305L368.386 1130.59L369.536 1131.74L614.824 886.456L613.673 885.305Z"
        fill="#FAF8F8" fill-opacity="0.5" />
      <path d="M620.797 892.548L375.51 1137.84L376.66 1138.99L621.948 893.698L620.797 892.548Z"
        fill="#FAF8F8" fill-opacity="0.5" />
      <path d="M628.152 899.792L382.864 1145.08L384.015 1146.23L629.302 900.942L628.152 899.792Z"
        fill="#FAF8F8" fill-opacity="0.5" />
      <path d="M635.277 907.034L389.989 1152.32L391.14 1153.47L636.427 908.184L635.277 907.034Z"
        fill="#FAF8F8" fill-opacity="0.5" />
      <path d="M642.631 914.276L397.344 1159.56L398.494 1160.71L643.782 915.427L642.631 914.276Z"
        fill="#FAF8F8" fill-opacity="0.5" />
      <path d="M649.755 921.519L404.468 1166.81L405.618 1167.96L650.906 922.67L649.755 921.519Z"
        fill="#FAF8F8" fill-opacity="0.5" />
      <path d="M657.11 928.762L411.822 1174.05L412.973 1175.2L658.26 929.913L657.11 928.762Z"
        fill="#FAF8F8" fill-opacity="0.5" />
      <path d="M664.234 936.005L418.946 1181.29L420.097 1182.44L665.384 937.156L664.234 936.005Z"
        fill="#FAF8F8" fill-opacity="0.5" />
      <path d="M671.588 943.248L426.301 1188.54L427.451 1189.69L672.739 944.398L671.588 943.248Z"
        fill="#FAF8F8" fill-opacity="0.5" />
      <path d="M678.713 950.49L433.426 1195.78L434.576 1196.93L679.864 951.641L678.713 950.49Z"
        fill="#FAF8F8" fill-opacity="0.5" />
    </g>
  </g>
  <defs>
    <filter id="filter0_f_338_1814" x="1114.93" y="0.658691" width="1396.4" height="1395.93"
      filterUnits="userSpaceOnUse" color-interpolation-filters="sRGB">
      <feFlood flood-opacity="0" result="BackgroundImageFix" />
      <feBlend mode="normal" in="SourceGraphic" in2="BackgroundImageFix" result="shape" />
      <feGaussianBlur stdDeviation="200" result="effect1_foregroundBlur_338_1814" />
    </filter>
    <filter id="filter1_f_338_1814" x="1469.85" y="476.093" width="686.563" height="806.248"
      filterUnits="userSpaceOnUse" color-interpolation-filters="sRGB">
      <feFlood flood-opacity="0" result="BackgroundImageFix" />
      <feBlend mode="normal" in="SourceGraphic" in2="BackgroundImageFix" result="shape" />
      <feGaussianBlur stdDeviation="100" result="effect1_foregroundBlur_338_1814" />
    </filter>
    <filter id="filter2_f_338_1814" x="226.041" y="828.954" width="754.322" height="754.041"
      filterUnits="userSpaceOnUse" color-interpolation-filters="sRGB">
      <feFlood flood-opacity="0" result="BackgroundImageFix" />
      <feBlend mode="normal" in="SourceGraphic" in2="BackgroundImageFix" result="shape" />
      <feGaussianBlur stdDeviation="100" result="effect1_foregroundBlur_338_1814" />
    </filter>
    <filter id="filter3_f_338_1814" x="318.078" y="778.006" width="570.248" height="641.352"
      filterUnits="userSpaceOnUse" color-interpolation-filters="sRGB">
      <feFlood flood-opacity="0" result="BackgroundImageFix" />
      <feBlend mode="normal" in="SourceGraphic" in2="BackgroundImageFix" result="shape" />
      <feGaussianBlur stdDeviation="100" result="effect1_foregroundBlur_338_1814" />
    </filter>
    <linearGradient id="paint0_linear_338_1814" x1="298.201" y1="0" x2="298.201" y2="595.927"
      gradientUnits="userSpaceOnUse">
      <stop stop-color="#2C4982" />
      <stop offset="1" stop-color="#2CD095" />
    </linearGradient>
    <linearGradient id="paint1_linear_338_1814" x1="143.282" y1="0" x2="143.282" y2="406.247"
      gradientUnits="userSpaceOnUse">
      <stop stop-color="#18FF9E" stop-opacity="0" />
      <stop offset="1" stop-color="#17FFE3" />
    </linearGradient>
    <linearGradient id="paint2_linear_338_1814" x1="603.202" y1="1028.95" x2="603.202" y2="1382.99"
      gradientUnits="userSpaceOnUse">
      <stop stop-color="#173B80" />
      <stop offset="1" stop-color="#11573E" />
    </linearGradient>
    <linearGradient id="paint3_linear_338_1814" x1="773.45" y1="1219.36" x2="773.45" y2="1460.71"
      gradientUnits="userSpaceOnUse">
      <stop stop-color="#18FF9E" stop-opacity="0" />
      <stop offset="1" stop-color="#17FFE3" />
    </linearGradient>
    <clipPath id="clip0_338_1814">
      <rect width="817" height="832" fill="white" transform="matrix(-1 0 0 -1 997 1609)" />
    </clipPath>
  </defs>
</svg>