<svg xmlns="http://www.w3.org/2000/svg" width="1000" height="900" viewBox="0 0 1000 900" fill="none">
  <g clip-path="url(#clip0_302_7402)">
    <g opacity="0.3">
      <mask id="mask0_302_7402" style="mask-type:luminance" maskUnits="userSpaceOnUse" x="281"
        y="165" width="304" height="304">
        <path
          d="M432.847 468.796C516.687 468.796 584.653 400.83 584.653 316.99C584.653 233.149 516.687 165.184 432.847 165.184C349.007 165.184 281.041 233.149 281.041 316.99C281.041 400.83 349.007 468.796 432.847 468.796Z"
          fill="white" />
      </mask>
      <g mask="url(#mask0_302_7402)">
        <path d="M425.219 69.9927L179.932 315.28L181.082 316.431L426.37 71.1432L425.219 69.9927Z"
          fill="#FAF8F8" fill-opacity="0.5" />
        <path d="M432.574 77.2359L187.286 322.523L188.437 323.674L433.724 78.3864L432.574 77.2359Z"
          fill="#FAF8F8" fill-opacity="0.5" />
        <path d="M439.698 84.4791L194.41 329.767L195.561 330.917L440.848 85.6296L439.698 84.4791Z"
          fill="#FAF8F8" fill-opacity="0.5" />
        <path d="M447.052 91.7213L201.765 337.009L202.915 338.159L448.203 92.8718L447.052 91.7213Z"
          fill="#FAF8F8" fill-opacity="0.5" />
        <path d="M454.177 98.9644L208.89 344.252L210.04 345.402L455.328 100.115L454.177 98.9644Z"
          fill="#FAF8F8" fill-opacity="0.5" />
        <path d="M461.532 106.208L216.244 351.495L217.395 352.646L462.682 107.358L461.532 106.208Z"
          fill="#FAF8F8" fill-opacity="0.5" />
        <path d="M468.656 113.45L223.368 358.737L224.519 359.888L469.806 114.6L468.656 113.45Z"
          fill="#FAF8F8" fill-opacity="0.5" />
        <path d="M476.01 120.693L230.723 365.98L231.873 367.131L477.161 121.843L476.01 120.693Z"
          fill="#FAF8F8" fill-opacity="0.5" />
        <path d="M483.134 127.935L237.847 373.223L238.997 374.373L484.285 129.086L483.134 127.935Z"
          fill="#FAF8F8" fill-opacity="0.5" />
        <path d="M490.489 135.178L245.201 380.466L246.352 381.616L491.639 136.329L490.489 135.178Z"
          fill="#FAF8F8" fill-opacity="0.5" />
        <path d="M497.729 142.536L252.441 387.823L253.592 388.974L498.879 143.686L497.729 142.536Z"
          fill="#FAF8F8" fill-opacity="0.5" />
        <path d="M504.968 149.664L259.681 394.951L260.831 396.102L506.119 150.814L504.968 149.664Z"
          fill="#FAF8F8" fill-opacity="0.5" />
        <path d="M512.207 157.022L266.92 402.31L268.07 403.46L513.358 158.173L512.207 157.022Z"
          fill="#FAF8F8" fill-opacity="0.5" />
        <path d="M519.447 164.15L274.159 409.438L275.31 410.588L520.597 165.3L519.447 164.15Z"
          fill="#FAF8F8" fill-opacity="0.5" />
        <path d="M526.686 171.507L281.398 416.795L282.549 417.945L527.837 172.658L526.686 171.507Z"
          fill="#FAF8F8" fill-opacity="0.5" />
        <path d="M533.925 178.635L288.638 423.923L289.788 425.073L535.076 179.786L533.925 178.635Z"
          fill="#FAF8F8" fill-opacity="0.5" />
        <path d="M541.164 185.993L295.877 431.28L297.027 432.431L542.315 187.143L541.164 185.993Z"
          fill="#FAF8F8" fill-opacity="0.5" />
        <path d="M548.405 193.121L303.117 438.408L304.268 439.559L549.555 194.271L548.405 193.121Z"
          fill="#FAF8F8" fill-opacity="0.5" />
        <path d="M555.644 200.478L310.356 445.766L311.507 446.916L556.794 201.629L555.644 200.478Z"
          fill="#FAF8F8" fill-opacity="0.5" />
        <path d="M562.883 207.606L317.596 452.894L318.746 454.044L564.034 208.757L562.883 207.606Z"
          fill="#FAF8F8" fill-opacity="0.5" />
        <path d="M570.238 214.849L324.95 460.137L326.101 461.287L571.388 216L570.238 214.849Z"
          fill="#FAF8F8" fill-opacity="0.5" />
        <path d="M577.362 222.092L332.074 467.38L333.225 468.53L578.512 223.243L577.362 222.092Z"
          fill="#FAF8F8" fill-opacity="0.5" />
        <path d="M584.716 229.335L339.429 474.622L340.579 475.773L585.867 230.485L584.716 229.335Z"
          fill="#FAF8F8" fill-opacity="0.5" />
        <path d="M591.841 236.578L346.554 481.865L347.704 483.016L592.992 237.728L591.841 236.578Z"
          fill="#FAF8F8" fill-opacity="0.5" />
        <path d="M599.196 243.82L353.908 489.107L355.059 490.258L600.346 244.97L599.196 243.82Z"
          fill="#FAF8F8" fill-opacity="0.5" />
        <path d="M606.32 251.063L361.032 496.351L362.183 497.501L607.47 252.214L606.32 251.063Z"
          fill="#FAF8F8" fill-opacity="0.5" />
        <path d="M613.674 258.305L368.387 503.593L369.537 504.743L614.825 259.456L613.674 258.305Z"
          fill="#FAF8F8" fill-opacity="0.5" />
        <path d="M620.798 265.548L375.511 510.836L376.661 511.986L621.949 266.699L620.798 265.548Z"
          fill="#FAF8F8" fill-opacity="0.5" />
        <path d="M628.153 272.792L382.865 518.079L384.016 519.23L629.303 273.942L628.153 272.792Z"
          fill="#FAF8F8" fill-opacity="0.5" />
        <path d="M635.278 280.035L389.99 525.322L391.141 526.473L636.428 281.185L635.278 280.035Z"
          fill="#FAF8F8" fill-opacity="0.5" />
        <path d="M642.631 287.277L397.344 532.564L398.494 533.715L643.782 288.427L642.631 287.277Z"
          fill="#FAF8F8" fill-opacity="0.5" />
        <path d="M649.756 294.52L404.469 539.808L405.619 540.958L650.907 295.671L649.756 294.52Z"
          fill="#FAF8F8" fill-opacity="0.5" />
        <path d="M657.111 301.763L411.823 547.051L412.974 548.201L658.261 302.914L657.111 301.763Z"
          fill="#FAF8F8" fill-opacity="0.5" />
        <path d="M664.235 309.005L418.947 554.293L420.098 555.443L665.385 310.156L664.235 309.005Z"
          fill="#FAF8F8" fill-opacity="0.5" />
        <path d="M671.589 316.249L426.302 561.536L427.452 562.687L672.74 317.399L671.589 316.249Z"
          fill="#FAF8F8" fill-opacity="0.5" />
        <path d="M678.714 323.491L433.427 568.778L434.577 569.929L679.865 324.641L678.714 323.491Z"
          fill="#FAF8F8" fill-opacity="0.5" />
      </g>
    </g>
    <g clip-path="url(#clip2_302_7402)">
      <g filter="url(#filter2_f_302_7402)">
        <ellipse cx="177.161" cy="177.02" rx="177.161" ry="177.02"
          transform="matrix(-1 0 0 1 780.363 124.006)" fill="url(#paint2_linear_302_7402)" />
      </g>
      <g filter="url(#filter3_f_302_7402)">
        <rect width="170.248" height="241.352" transform="matrix(-1 0 0 1 688.326 287.642)"
          fill="url(#paint3_linear_302_7402)" />
      </g>
    </g>
  </g>
  <defs>


    <filter id="filter2_f_302_7402" x="226.041" y="-75.9941" width="754.323" height="754.041"
      filterUnits="userSpaceOnUse" color-interpolation-filters="sRGB">
      <feFlood flood-opacity="0" result="BackgroundImageFix" />
      <feBlend mode="normal" in="SourceGraphic" in2="BackgroundImageFix" result="shape" />
      <feGaussianBlur stdDeviation="100" result="effect1_foregroundBlur_302_7402" />
    </filter>
    <filter id="filter3_f_302_7402" x="318.078" y="87.6416" width="570.248" height="641.352"
      filterUnits="userSpaceOnUse" color-interpolation-filters="sRGB">
      <feFlood flood-opacity="0" result="BackgroundImageFix" />
      <feBlend mode="normal" in="SourceGraphic" in2="BackgroundImageFix" result="shape" />
      <feGaussianBlur stdDeviation="100" result="effect1_foregroundBlur_302_7402" />
    </filter>
    <linearGradient id="paint2_linear_302_7402" x1="177.161" y1="0" x2="177.161" y2="354.041"
      gradientUnits="userSpaceOnUse">
      <stop stop-color="#173B80" />
      <stop offset="1" stop-color="#11573E" />
    </linearGradient>
    <linearGradient id="paint3_linear_302_7402" x1="85.1238" y1="0" x2="85.1238" y2="241.352"
      gradientUnits="userSpaceOnUse">
      <stop stop-color="#18FF9E" stop-opacity="0" />
      <stop offset="1" stop-color="#17FFE3" />
    </linearGradient>
    <clipPath id="clip0_302_7402">
      <rect width="2680" height="900" fill="white" />
    </clipPath>
    <clipPath id="clip2_302_7402">
      <rect width="749" height="755" fill="white" transform="matrix(-1 0 0 1 978 0)" />
    </clipPath>
  </defs>
</svg>