<svg xmlns="http://www.w3.org/2000/svg" width="1920" height="734" viewBox="0 0 1920 734" fill="none">
  <g filter="url(#filter0_b_296_5856)">
    <mask id="path-1-inside-1_296_5856" fill="white">
      <path
        d="M-220.836 549.747C-63.2084 669.855 135.617 735.68 333.617 733.922C654.678 730.706 958.237 556.388 1279.24 567.547C1301.64 568.424 1325.75 570.864 1342.36 585.535C1358.96 600.206 1362.72 631.901 1343.26 643.152C1326.21 653.488 1302.67 640.899 1295.05 622.266C1287.6 604.116 1291.62 582.718 1297.88 564.332C1323.24 490.121 1381.38 431.06 1447.09 389.001C1512.8 346.942 1586.77 319.407 1659.54 290.124C1817.12 226.981 1980.68 146.117 2067.08 0.149681" />
    </mask>
    <path
      d="M333.617 733.922L333.627 734.922L333.626 734.922L333.617 733.922ZM1279.24 567.547L1279.27 566.548L1279.28 566.548L1279.24 567.547ZM1343.26 643.152L1342.74 642.297L1342.75 642.292L1342.76 642.287L1343.26 643.152ZM1295.05 622.266L1295.97 621.887L1295.97 621.887L1295.05 622.266ZM1297.88 564.332L1296.94 564.009L1296.94 564.009L1297.88 564.332ZM1659.54 290.124L1659.17 289.196L1659.17 289.196L1659.54 290.124ZM-220.23 548.952C-62.7797 668.924 135.83 734.678 333.608 732.922L333.626 734.922C135.405 736.682 -63.6372 670.785 -221.442 550.542L-220.23 548.952ZM333.607 732.922C493.984 731.315 650.006 686.975 806.187 644.379C962.318 601.797 1118.6 560.962 1279.27 566.548L1279.2 568.547C1118.88 562.973 962.877 603.718 806.713 646.309C650.599 688.886 494.312 733.312 333.627 734.922L333.607 732.922ZM1279.28 566.548C1301.66 567.424 1326.11 569.851 1343.02 584.786L1341.69 586.285C1325.39 571.878 1301.63 569.424 1279.2 568.547L1279.28 566.548ZM1343.02 584.786C1351.54 592.318 1356.74 604.172 1357.33 615.574C1357.93 626.982 1353.92 638.146 1343.76 644.018L1342.76 642.287C1352.06 636.907 1355.9 626.598 1355.33 615.678C1354.76 604.752 1349.77 593.423 1341.69 586.285L1343.02 584.786ZM1343.78 644.007C1334.9 649.392 1324.39 648.765 1315.2 644.479C1306.02 640.195 1298.03 632.208 1294.12 622.645L1295.97 621.887C1299.68 630.956 1307.29 638.581 1316.04 642.666C1324.79 646.749 1334.58 647.249 1342.74 642.297L1343.78 644.007ZM1294.12 622.645C1286.53 604.142 1290.66 582.443 1296.94 564.009L1298.83 564.654C1292.58 582.993 1288.67 604.089 1295.97 621.887L1294.12 622.645ZM1296.94 564.009C1322.39 489.512 1380.73 430.291 1446.55 388.159L1447.63 389.843C1382.04 431.829 1324.09 490.73 1298.83 564.655L1296.94 564.009ZM1446.55 388.159C1512.36 346.037 1586.44 318.462 1659.17 289.196L1659.91 291.052C1587.11 320.351 1513.24 347.847 1447.63 389.843L1446.55 388.159ZM1659.17 289.196C1816.76 226.052 1980 145.289 2066.22 -0.359774L2067.94 0.65905C1981.35 146.945 1817.49 227.91 1659.91 291.052L1659.17 289.196Z"
      fill="url(#paint0_linear_296_5856)" mask="url(#path-1-inside-1_296_5856)" />
  </g>
  <defs>
    <filter id="filter0_b_296_5856" x="-230.836" y="-9.85034" width="2307.92" height="753.807"
      filterUnits="userSpaceOnUse" color-interpolation-filters="sRGB">
      <feFlood flood-opacity="0" result="BackgroundImageFix" />
      <feGaussianBlur in="BackgroundImageFix" stdDeviation="5" />
      <feComposite in2="SourceAlpha" operator="in" result="effect1_backgroundBlur_296_5856" />
      <feBlend mode="normal" in="SourceGraphic" in2="effect1_backgroundBlur_296_5856" result="shape" />
    </filter>
    <linearGradient id="paint0_linear_296_5856" x1="-106.734" y1="850.276" x2="2075.31" y2="21.8169"
      gradientUnits="userSpaceOnUse">
      <stop stop-color="#106EBD" />
      <stop offset="1" stop-color="#10BCB3" />
    </linearGradient>
  </defs>
</svg>