<svg xmlns="http://www.w3.org/2000/svg" width="1042" height="876" viewBox="0 0 1042 876" fill="none">
  <g filter="url(#filter0_b_296_5855)">
    <mask id="path-1-inside-1_296_5855" fill="white">
      <path
        d="M1026.8 0.359251C1061.2 93.3907 1030.53 202.089 965.938 277.015C901.349 351.941 807.081 396.678 710.66 418.766C670.511 428.153 628.635 434.142 592.668 454.332C556.7 474.521 526.566 512.722 531.546 553.502C538.449 612.619 609.462 646.049 622.174 704.025C629.41 737.269 615.301 772.558 591.897 797.077C568.492 821.597 537.008 837.345 504.894 848.685C394.546 887.811 269.978 883.911 160.41 842.812C50.44 801.615 -44.4223 724.521 -112.133 628.498" />
    </mask>
    <path
      d="M710.66 418.766L710.432 417.792L710.437 417.791L710.66 418.766ZM531.546 553.502L532.538 553.38L532.539 553.386L531.546 553.502ZM622.174 704.025L623.151 703.811L623.151 703.812L622.174 704.025ZM504.894 848.685L504.56 847.743L504.561 847.743L504.894 848.685ZM160.41 842.812L160.761 841.875L160.761 841.876L160.41 842.812ZM1027.74 0.012433C1062.3 93.4607 1031.47 202.533 966.696 277.668L965.181 276.362C1029.59 201.645 1060.11 93.3207 1025.87 0.706068L1027.74 0.012433ZM966.696 277.668C901.923 352.807 807.435 397.622 710.883 419.741L710.437 417.791C806.727 395.733 900.774 351.076 965.181 276.362L966.696 277.668ZM710.888 419.74C670.616 429.155 628.962 435.105 593.157 455.204L592.178 453.46C628.308 433.179 670.406 427.15 710.432 417.792L710.888 419.74ZM593.157 455.204C557.365 475.295 527.629 513.174 532.538 553.38L530.553 553.623C525.504 512.271 556.036 473.747 592.178 453.46L593.157 455.204ZM532.539 553.386C535.949 582.588 555.196 605.501 575.433 628.531C595.585 651.465 616.728 674.519 623.151 703.811L621.197 704.239C614.908 675.555 594.189 652.906 573.93 629.851C553.757 606.893 534.046 583.533 530.552 553.618L532.539 553.386ZM623.151 703.812C630.476 737.463 616.189 773.076 592.62 797.768L591.173 796.387C614.414 772.039 628.345 737.075 621.197 704.238L623.151 703.812ZM592.62 797.768C569.059 822.451 537.407 838.265 505.227 849.628L504.561 847.743C536.61 836.426 567.925 820.743 591.173 796.387L592.62 797.768ZM505.228 849.628C394.642 888.838 269.832 884.925 160.059 843.748L160.761 841.876C270.125 882.898 394.449 886.785 504.56 847.743L505.228 849.628ZM160.059 843.748C49.8844 802.474 -45.1346 725.246 -112.951 629.074L-111.316 627.921C-43.7102 723.795 50.9956 800.755 160.761 841.875L160.059 843.748Z"
      fill="url(#paint0_linear_296_5855)" mask="url(#path-1-inside-1_296_5855)" />
  </g>
  <defs>
    <filter id="filter0_b_296_5855" x="-122.133" y="-9.64087" width="1173.21" height="895.585"
      filterUnits="userSpaceOnUse" color-interpolation-filters="sRGB">
      <feFlood flood-opacity="0" result="BackgroundImageFix" />
      <feGaussianBlur in="BackgroundImageFix" stdDeviation="5" />
      <feComposite in2="SourceAlpha" operator="in" result="effect1_backgroundBlur_296_5855" />
      <feBlend mode="normal" in="SourceGraphic" in2="effect1_backgroundBlur_296_5855" result="shape" />
    </filter>
    <linearGradient id="paint0_linear_296_5855" x1="945.142" y1="508.96" x2="-25.7128" y2="272.969"
      gradientUnits="userSpaceOnUse">
      <stop stop-color="#106EBD" />
      <stop offset="1" stop-color="#10BCB3" />
    </linearGradient>
  </defs>
</svg>