<svg xmlns="http://www.w3.org/2000/svg" width="32" height="32" viewBox="0 0 32 32" fill="none">
  <g clip-path="url(#clip0_296_4301)">
    <path fill-rule="evenodd" clip-rule="evenodd"
      d="M16 0.0020752C24.8372 0.0020752 32 7.1649 32 16.0021C32 24.8393 24.8372 32.0021 16 32.0021C7.16282 32.0021 0 24.8393 0 16.0021C0 7.1649 7.16282 0.0020752 16 0.0020752Z"
      fill="#F0B90B" />
    <path
      d="M8.79379 16.0021L8.80532 20.2329L12.4002 22.3483V24.8252L6.70148 21.4829V14.7649L8.79379 16.0021ZM8.79379 11.7714V14.2367L6.7002 12.9983V10.5329L8.79379 9.29443L10.8976 10.5329L8.79379 11.7714ZM13.9015 10.5329L15.9951 9.29443L18.0989 10.5329L15.9951 11.7714L13.9015 10.5329Z"
      fill="white" />
    <path
      d="M10.3066 19.356V16.879L12.4002 18.1175V20.5829L10.3066 19.356ZM13.9015 23.2355L15.9951 24.4739L18.0989 23.2355V25.7008L15.9951 26.9393L13.9015 25.7008V23.2355ZM21.1015 10.5329L23.1951 9.29443L25.2989 10.5329V12.9983L23.1951 14.2367V11.7714L21.1015 10.5329ZM23.1951 20.2329L23.2066 16.0021L25.3002 14.7637V21.4816L19.6015 24.8239V22.347L23.1951 20.2329Z"
      fill="white" />
    <path d="M21.6937 19.356L19.6001 20.5829V18.1175L21.6937 16.879V19.356Z" fill="white" />
    <path
      d="M21.6938 12.6483L21.7054 15.1252L18.1002 17.2406V21.4816L16.0066 22.7085L13.913 21.4816V17.2406L10.3079 15.1252V12.6483L12.4105 11.4098L15.9938 13.5355L19.5989 11.4098L21.7028 12.6483H21.6938ZM10.3066 8.41879L15.9951 5.06494L21.6938 8.41879L19.6002 9.65725L15.9951 7.53161L12.4002 9.65725L10.3066 8.41879Z"
      fill="white" />
  </g>
  <defs>
    <clipPath id="clip0_296_4301">
      <rect width="32" height="32" fill="white" transform="translate(0 0.0020752)" />
    </clipPath>
  </defs>
</svg>