<svg xmlns="http://www.w3.org/2000/svg" width="73" height="72" viewBox="0 0 73 72" fill="none">
  <path
    d="M71.7958 44.7086C66.9365 63.9945 47.1952 75.7315 27.7018 70.9222C8.21652 66.1142 -3.64539 46.5794 1.21596 27.2951C6.07305 8.00709 25.8144 -3.73082 45.3018 1.07724C64.7938 5.8853 76.655 25.4221 71.7952 44.7089L71.7956 44.7086H71.7958Z"
    fill="#F7931A" />
  <path fill-rule="evenodd" clip-rule="evenodd"
    d="M52.5487 30.8709C53.2728 26.0801 49.5866 23.5048 44.546 21.7869L46.1812 15.2973L42.1888 14.313L40.5969 20.6317C39.5473 20.3727 38.4695 20.1286 37.3982 19.8866L39.0016 13.5262L35.0116 12.5419L33.3755 19.0293C32.507 18.8337 31.6539 18.6403 30.8262 18.4365L30.8308 18.4161L25.3252 17.0557L24.2631 21.275C24.2631 21.275 27.2252 21.9468 27.1628 21.9882C28.7795 22.3874 29.0719 23.4464 29.0233 24.2858L27.1606 31.6789C27.272 31.7069 27.4164 31.7474 27.5757 31.8107L27.4596 31.782L27.4596 31.782C27.3611 31.7577 27.2588 31.7323 27.1537 31.7074L24.5429 42.0642C24.3453 42.5502 23.8438 43.2796 22.7135 43.0026C22.7535 43.06 19.8117 42.2861 19.8117 42.2861L17.8295 46.808L23.025 48.0896C23.594 48.2307 24.1563 48.3758 24.7129 48.5193L24.7134 48.5195C25.1021 48.6197 25.488 48.7193 25.8715 48.8163L24.2194 55.3803L28.2072 56.3647L29.8433 49.8703C30.9327 50.163 31.99 50.4329 33.025 50.6873L31.3944 57.151L35.387 58.1354L37.039 51.5837C43.8469 52.8586 48.966 52.3446 51.1206 46.2516C52.8568 41.3461 51.0342 38.5166 47.4526 36.6714C50.0613 36.0761 52.0262 34.3784 52.5501 30.8714L52.5488 30.8705L52.5487 30.8709ZM43.4269 43.5273C42.2949 48.028 35.1751 46.1673 31.9176 45.316C31.6246 45.2394 31.3628 45.171 31.1394 45.1161L33.3318 36.4199C33.604 36.4872 33.9367 36.561 34.3135 36.6447C37.683 37.3929 44.5867 38.9259 43.4271 43.5273H43.4269ZM34.9894 32.6091C37.7052 33.3263 43.6298 34.8908 44.6616 30.8002H44.662C45.7156 26.6166 39.9579 25.3553 37.1458 24.7393C36.8295 24.67 36.5504 24.6088 36.3225 24.5526L34.3348 32.4395C34.5225 32.4858 34.7427 32.544 34.9894 32.6091Z"
    fill="white" />
</svg>