<svg xmlns="http://www.w3.org/2000/svg" width="48" height="48" viewBox="0 0 48 48" fill="none">
  <rect x="6" y="6" width="36" height="36" rx="18" fill="url(#paint0_linear_296_5865)" />
  <path fill-rule="evenodd" clip-rule="evenodd"
    d="M44.1127 25.6379C44.5546 25.1081 45 24.574 45 23.9997C45 23.4288 44.562 22.9062 44.1237 22.383C43.7327 21.9163 43.3413 21.4493 43.26 20.9472C43.1781 20.4419 43.4086 19.869 43.6383 19.2984C43.8926 18.6663 44.1459 18.0368 43.9725 17.5047C43.7979 16.969 43.2182 16.6034 42.6387 16.2379C42.1228 15.9125 41.6071 15.5873 41.3775 15.1422C41.1466 14.6947 41.1866 14.0824 41.2265 13.4701C41.2708 12.7894 41.3152 12.1088 40.9875 11.6547C40.6584 11.1987 39.9917 11.0299 39.3256 10.8612C38.7318 10.7109 38.1385 10.5607 37.785 10.2072C37.4306 9.85279 37.2788 9.25723 37.1271 8.66189C36.9578 7.99733 36.7885 7.33303 36.3375 7.00469C35.8842 6.67469 35.1949 6.71775 34.5076 6.76069C33.8983 6.79875 33.2905 6.83671 32.85 6.61469C32.407 6.39145 32.0796 5.87355 31.7515 5.35446C31.385 4.77486 31.0177 4.19377 30.4875 4.01969C29.9555 3.84499 29.3121 4.10116 28.6707 4.3565C28.1006 4.5835 27.5321 4.80984 27.045 4.73219C26.5604 4.65493 26.0972 4.26858 25.6307 3.87951C25.1009 3.4376 24.5668 2.99219 23.9925 2.99219C23.4216 2.99219 22.899 3.43012 22.3758 3.86851C21.9091 4.25951 21.4421 4.65087 20.94 4.73219C20.4347 4.81403 19.8618 4.58353 19.2912 4.3539C18.6591 4.09955 18.0296 3.84626 17.4975 4.01969C16.9618 4.19427 16.5962 4.77395 16.2307 5.35344C15.9053 5.86934 15.5801 6.38509 15.135 6.61469C14.6875 6.84553 14.0752 6.80562 13.4629 6.76571C12.7822 6.72133 12.1016 6.67696 11.6475 7.00469C11.1915 7.33381 11.0227 8.00046 10.854 8.66658C10.7037 9.26036 10.5535 9.85372 10.2 10.2072C9.84559 10.5616 9.25003 10.7134 8.65469 10.8651C7.99013 11.0344 7.32583 11.2037 6.99749 11.6547C6.66749 12.1079 6.71055 12.7972 6.75348 13.4846C6.79154 14.0939 6.82951 14.7017 6.60749 15.1422C6.38425 15.5851 5.86635 15.9125 5.34726 16.2407C4.76766 16.6071 4.18657 16.9745 4.01249 17.5047C3.83779 18.0367 4.09396 18.6801 4.3493 19.3214C4.5763 19.8916 4.80264 20.4601 4.72499 20.9472C4.64773 21.4318 4.26138 21.895 3.87231 22.3615C3.4304 22.8913 2.98499 23.4253 2.98499 23.9997C2.98499 24.5705 3.42292 25.0932 3.86131 25.6164C4.25231 26.083 4.64366 26.5501 4.72499 27.0522C4.80683 27.5575 4.57633 28.1303 4.3467 28.701C4.09234 29.3331 3.83906 29.9626 4.01249 30.4947C4.18706 31.0303 4.76675 31.3959 5.34624 31.7614C5.86214 32.0868 6.37789 32.4121 6.60749 32.8572C6.83833 33.3047 6.79842 33.917 6.75851 34.5292C6.71413 35.2099 6.66976 35.8906 6.99749 36.3447C7.32661 36.8007 7.99326 36.9695 8.65938 37.1381C9.25316 37.2885 9.84652 37.4387 10.2 37.7922C10.5544 38.1466 10.7062 38.7421 10.8579 39.3375C11.0272 40.002 11.1965 40.6663 11.6475 40.9947C12.1007 41.3247 12.79 41.2816 13.4774 41.2387C14.0867 41.2006 14.6945 41.1627 15.135 41.3847C15.5779 41.6079 15.9053 42.1258 16.2335 42.6449C16.5999 43.2245 16.9673 43.8056 17.4975 43.9797C18.0295 44.1544 18.6729 43.8982 19.3142 43.6429C19.8844 43.4159 20.4529 43.1895 20.94 43.2672C21.4246 43.3444 21.8878 43.7308 22.3543 44.1199C22.8841 44.5618 23.4181 45.0072 23.9925 45.0072C24.5633 45.0072 25.086 44.5692 25.6092 44.1309C26.0758 43.7399 26.5429 43.3485 27.045 43.2672C27.5503 43.1853 28.1231 43.4158 28.6938 43.6455C29.3259 43.8998 29.9554 44.1531 30.4875 43.9797C31.0231 43.8051 31.3887 43.2254 31.7542 42.6459C32.0796 42.13 32.4049 41.6143 32.85 41.3847C33.2975 41.1538 33.9098 41.1938 34.522 41.2337C35.2027 41.278 35.8834 41.3224 36.3375 40.9947C36.7935 40.6656 36.9623 39.9989 37.1309 39.3328C37.2813 38.739 37.4315 38.1457 37.785 37.7922C38.1394 37.4378 38.7349 37.286 39.3303 37.1343C39.9948 36.965 40.6591 36.7957 40.9875 36.3447C41.3175 35.8914 41.2744 35.2021 41.2315 34.5148C41.1934 33.9055 41.1555 33.2977 41.3775 32.8572C41.6007 32.4142 42.1186 32.0868 42.6377 31.7587C43.2173 31.3922 43.7984 31.0249 43.9725 30.4947C44.1472 29.9627 43.891 29.3193 43.6357 28.6779C43.4087 28.1078 43.1823 27.5393 43.26 27.0522C43.3372 26.5676 43.7236 26.1044 44.1127 25.6379ZM39.75 23.9995C39.75 32.698 32.6985 39.7495 24 39.7495C15.3015 39.7495 8.25 32.698 8.25 23.9995C8.25 15.301 15.3015 8.24951 24 8.24951C32.6985 8.24951 39.75 15.301 39.75 23.9995Z"
    fill="white" />
  <path
    d="M32.7825 18.5625L31.725 17.475C31.4325 17.175 30.96 17.175 30.6675 17.475L21.0075 27.36L17.3475 23.6175C17.055 23.3175 16.5825 23.3175 16.29 23.6175L15.2325 24.705C14.94 25.005 14.94 25.4925 15.2325 25.7925L19.425 30.0825C20.3025 30.9825 21.7275 30.9825 22.605 30.0825L32.7975 19.65C33.09 19.35 33.09 18.8625 32.7975 18.5625H32.7825Z"
    fill="white" />
  <defs>
    <linearGradient id="paint0_linear_296_5865" x1="6.07714" y1="6.07716" x2="41.9228" y2="41.9229"
      gradientUnits="userSpaceOnUse">
      <stop stop-color="#0F6ABD" />
      <stop offset="1" stop-color="#0FBDB3" />
    </linearGradient>
  </defs>
</svg>