<svg xmlns="http://www.w3.org/2000/svg" width="1130" height="1" viewBox="0 0 1130 1" fill="none">
  <g filter="url(#filter0_b_296_3959)">
    <path
      d="M0.5 0.500416C0.5 0.5004 0.5 0.500383 0.5 0.500366L2.24822 0.500366L2.24822 0.000366011L4.2509 0.000365833L4.2509 0.500366L8.25625 0.500365L8.25625 0.000365476L10.2589 0.000365298L10.2589 0.500365L14.2643 0.500365L14.2643 0.000364942L16.2669 0.000364763L16.2669 0.500365L20.2723 0.500364L20.2723 0.000364407L22.275 0.000364229L22.275 0.500364L26.2803 0.500364L26.2803 0.000363872L28.283 0.000363694L28.283 0.500364L32.2884 0.500363L32.2884 0.000363338L34.291 0.000363159L34.291 0.500363L38.2964 0.500363L38.2964 0.000362803L40.2991 0.000362625L40.2991 0.500363L44.3044 0.500362L44.3044 0.000362268L46.3071 0.00036209L46.3071 0.500362L50.3124 0.500362L50.3124 0.000361734L52.3151 0.000361555L52.3151 0.500362L56.3205 0.500361L56.3205 0.000361199L58.3231 0.000361021L58.3231 0.500361L62.3285 0.500361L62.3285 0.000360664L64.3312 0.000360486L64.3312 0.50036L68.3365 0.50036L68.3365 0.00036013L70.3392 0.000359951L70.3392 0.50036L74.3445 0.50036L74.3445 0.000359595L76.3472 0.000359417L76.3472 0.500359L80.3526 0.500359L80.3526 0.00035906L82.3552 0.000358882L82.3552 0.500359L86.3606 0.500359L86.3606 0.000358526L88.3633 0.000358348L88.3633 0.500358L92.3686 0.500358L92.3686 0.000357991L94.3713 0.000357813L94.3713 0.500358L98.3766 0.500357L98.3766 0.000357456L100.379 0.000357278L100.379 0.500357L104.385 0.500357L104.385 0.000356922L106.387 0.000356744L106.387 0.500357L110.393 0.500356L110.393 0.000356387L112.395 0.000356209L112.395 0.500356L116.401 0.500356L116.401 0.000355852L118.403 0.000355674L118.403 0.500356L122.409 0.500355L122.409 0.000355318L124.411 0.00035514L124.411 0.500355L128.417 0.500355L128.417 0.000354783L130.419 0.000354605L130.419 0.500355L134.425 0.500354L134.425 0.000354249L136.427 0.00035407L136.427 0.500354L140.433 0.500354L140.433 0.000353714L142.435 0.000353536L142.435 0.500354L146.441 0.500353L146.441 0.000353179L148.444 0.000353001L148.444 0.500353L152.449 0.500353L152.449 0.000352645L154.452 0.000352466L154.452 0.500352L158.457 0.500352L158.457 0.00035211L160.46 0.000351932L160.46 0.500352L164.465 0.500352L164.465 0.000351575L166.468 0.000351397L166.468 0.500351L170.473 0.500351L170.473 0.000351041L172.476 0.000350862L172.476 0.500351L176.481 0.500351L176.481 0.000350506L178.484 0.000350328L178.484 0.50035L182.489 0.50035L182.489 0.000349971L184.492 0.000349793L184.492 0.50035L188.497 0.500349L188.497 0.000349437L190.5 0.000349258L190.5 0.500349L194.505 0.500349L194.505 0.000348902L196.508 0.000348724L196.508 0.500349L200.513 0.500348L200.513 0.000348367L202.516 0.000348189L202.516 0.500348L206.521 0.500348L206.521 0.000347833L208.524 0.000347654L208.524 0.500348L212.529 0.500347L212.529 0.000347298L214.532 0.00034712L214.532 0.500347L218.537 0.500347L218.537 0.000346763L220.54 0.000346585L220.54 0.500347L224.545 0.500346L224.545 0.000346229L226.548 0.00034605L226.548 0.500346L230.553 0.500346L230.553 0.000345694L232.556 0.000345516L232.556 0.500346L236.561 0.500345L236.561 0.000345159L238.564 0.000344981L238.564 0.500345L242.569 0.500345L242.569 0.000344625L244.572 0.000344447L244.572 0.500344L248.577 0.500344L248.577 0.00034409L250.58 0.000343912L250.58 0.500344L254.585 0.500344L254.585 0.000343555L256.588 0.000343377L256.588 0.500343L260.593 0.500343L260.593 0.000343021L262.596 0.000342843L262.596 0.500343L266.601 0.500342L266.601 0.000342486L268.604 0.000342308L268.604 0.500342L272.609 0.500342L272.609 0.000341951L274.612 0.000341773L274.612 0.500342L278.617 0.500341L278.617 0.000341417L280.62 0.000341239L280.62 0.500341L284.625 0.500341L284.625 0.000340882L286.628 0.000340704L286.628 0.500341L290.633 0.50034L290.633 0.000340348L292.636 0.000340169L292.636 0.50034L296.641 0.50034L296.641 0.000339813L298.644 0.000339635L298.644 0.50034L302.65 0.500339L302.65 0.000339278L304.652 0.0003391L304.652 0.500339L308.658 0.500339L308.658 0.000338744L310.66 0.000338565L310.66 0.500339L314.666 0.500338L314.666 0.000338209L316.668 0.000338031L316.668 0.500338L320.674 0.500338L320.674 0.000337674L322.676 0.000337496L322.676 0.500337L326.682 0.500337L326.682 0.00033714L328.684 0.000336961L328.684 0.500337L332.69 0.500337L332.69 0.000336605L334.692 0.000336427L334.692 0.500336L338.698 0.500336L338.698 0.00033607L340.7 0.000335892L340.7 0.500336L344.706 0.500336L344.706 0.000335536L346.708 0.000335357L346.708 0.500335L350.714 0.500335L350.714 0.000335001L352.716 0.000334823L352.716 0.500335L356.722 0.500334L356.722 0.000334466L358.724 0.000334288L358.724 0.500334L362.73 0.500334L362.73 0.000333932L364.732 0.000333753L364.732 0.500334L368.738 0.500333L368.738 0.000333397L370.74 0.000333219L370.74 0.500333L374.746 0.500333L374.746 0.000332862L376.749 0.000332684L376.749 0.500333L380.754 0.500332L380.754 0.000332328L382.757 0.00033215L382.757 0.500332L386.762 0.500332L386.762 0.000331793L388.765 0.000331615L388.765 0.500332L392.77 0.500331L392.77 0.000331258L394.773 0.00033108L394.773 0.500331L398.778 0.500331L398.778 0.000330724L400.781 0.000330546L400.781 0.500331L404.786 0.50033L404.786 0.000330189L406.789 0.000330011L406.789 0.50033L410.794 0.50033L410.794 0.000329654L412.797 0.000329476L412.797 0.500329L416.802 0.500329L416.802 0.00032912L418.805 0.000328942L418.805 0.500329L422.81 0.500329L422.81 0.000328585L424.813 0.000328407L424.813 0.500328L428.818 0.500328L428.818 0.000328051L430.821 0.000327872L430.821 0.500328L434.826 0.500328L434.826 0.000327516L436.829 0.000327338L436.829 0.500327L440.834 0.500327L440.834 0.000326981L442.837 0.000326803L442.837 0.500327L446.842 0.500326L446.842 0.000326447L448.845 0.000326268L448.845 0.500326L452.85 0.500326L452.85 0.000325912L454.853 0.000325734L454.853 0.500326L458.858 0.500325L458.858 0.000325377L460.861 0.000325199L460.861 0.500325L464.866 0.500325L464.866 0.000324843L466.869 0.000324664L466.869 0.500325L470.874 0.500324L470.874 0.000324308L472.877 0.00032413L472.877 0.500324L476.882 0.500324L476.882 0.000323773L478.885 0.000323595L478.885 0.500324L482.89 0.500323L482.89 0.000323239L484.893 0.00032306L484.893 0.500323L488.898 0.500323L488.898 0.000322704L490.901 0.000322526L490.901 0.500323L494.906 0.500322L494.906 0.000322169L496.909 0.000321991L496.909 0.500322L500.914 0.500322L500.914 0.000321635L502.917 0.000321456L502.917 0.500321L506.922 0.500321L506.922 0.0003211L508.925 0.000320922L508.925 0.500321L512.93 0.500321L512.93 0.000320565L514.933 0.000320387L514.933 0.50032L518.939 0.50032L518.939 0.000320031L520.941 0.000319852L520.941 0.50032L524.947 0.500319L524.947 0.000319496L526.949 0.000319318L526.949 0.500319L530.955 0.500319L530.955 0.000318961L532.957 0.000318783L532.957 0.500319L536.963 0.500318L536.963 0.000318427L538.965 0.000318249L538.965 0.500318L542.971 0.500318L542.971 0.000317892L544.973 0.000317714L544.973 0.500318L548.979 0.500317L548.979 0.000317357L550.981 0.000317179L550.981 0.500317L554.987 0.500317L554.987 0.000316823L556.99 0.000316645L556.99 0.500317L560.995 0.500316L560.995 0.000316288L562.998 0.00031611L562.998 0.500316L567.003 0.500316L567.003 0.000315753L569.006 0.000315575L569.006 0.500316L573.011 0.500315L573.011 0.000315219L575.014 0.000315041L575.014 0.500315L579.019 0.500315L579.019 0.000314684L581.022 0.000314506L581.022 0.500315L585.027 0.500314L585.027 0.000314149L587.03 0.000313971L587.03 0.500314L591.035 0.500314L591.035 0.000313615L593.038 0.000313437L593.038 0.500313L597.043 0.500313L597.043 0.00031308L599.046 0.000312902L599.046 0.500313L603.051 0.500313L603.051 0.000312546L605.054 0.000312367L605.054 0.500312L609.059 0.500312L609.059 0.000312011L611.062 0.000311833L611.062 0.500312L615.067 0.500311L615.067 0.000311476L617.07 0.000311298L617.07 0.500311L621.075 0.500311L621.075 0.000310942L623.078 0.000310763L623.078 0.500311L627.083 0.50031L627.083 0.000310407L629.086 0.000310229L629.086 0.50031L633.092 0.50031L633.092 0.000309872L635.094 0.000309694L635.094 0.50031L639.1 0.500309L639.1 0.000309338L641.102 0.000309159L641.102 0.500309L645.108 0.500309L645.108 0.000308803L647.11 0.000308625L647.11 0.500309L651.116 0.500308L651.116 0.000308268L653.118 0.00030809L653.118 0.500308L657.124 0.500308L657.124 0.000307734L659.127 0.000307555L659.127 0.500308L663.132 0.500307L663.132 0.000307199L665.135 0.000307021L665.135 0.500307L669.14 0.500307L669.14 0.000306664L671.143 0.000306486L671.143 0.500306L675.148 0.500306L675.148 0.00030613L677.151 0.000305951L677.151 0.500306L681.156 0.500306L681.156 0.000305595L683.159 0.000305417L683.159 0.500305L687.164 0.500305L687.164 0.00030506L689.167 0.000304882L689.167 0.500305L693.172 0.500305L693.172 0.000304526L695.175 0.000304347L695.175 0.500304L699.18 0.500304L699.18 0.000303991L701.183 0.000303813L701.183 0.500304L705.188 0.500303L705.188 0.000303456L707.191 0.000303278L707.191 0.500303L711.196 0.500303L711.196 0.000302922L713.199 0.000302744L713.199 0.500303L717.204 0.500302L717.204 0.000302387L719.207 0.000302209L719.207 0.500302L723.212 0.500302L723.212 0.000301852L725.215 0.000301674L725.215 0.500302L729.221 0.500301L729.221 0.000301318L731.223 0.00030114L731.223 0.500301L735.229 0.500301L735.229 0.000300783L737.231 0.000300605L737.231 0.500301L741.237 0.5003L741.237 0.000300248L743.239 0.00030007L743.239 0.5003L747.245 0.5003L747.245 0.000299714L749.247 0.000299536L749.247 0.5003L753.253 0.500299L753.253 0.000299179L755.255 0.000299001L755.255 0.500299L759.261 0.500299L759.261 0.000298644L761.263 0.000298466L761.263 0.500298L765.269 0.500298L765.269 0.00029811L767.271 0.000297932L767.271 0.500298L771.277 0.500298L771.277 0.000297575L773.28 0.000297397L773.28 0.500297L777.285 0.500297L777.285 0.000297041L779.288 0.000296862L779.288 0.500297L783.293 0.500297L783.293 0.000296506L785.296 0.000296328L785.296 0.500296L789.301 0.500296L789.301 0.000295971L791.304 0.000295793L791.304 0.500296L795.309 0.500295L795.309 0.000295437L797.312 0.000295258L797.312 0.500295L801.317 0.500295L801.317 0.000294902L803.32 0.000294724L803.32 0.500295L807.325 0.500294L807.325 0.000294367L809.328 0.000294189L809.328 0.500294L813.333 0.500294L813.333 0.000293833L815.336 0.000293654L815.336 0.500294L819.341 0.500293L819.341 0.000293298L821.344 0.00029312L821.344 0.500293L825.349 0.500293L825.349 0.000292763L827.352 0.000292585L827.352 0.500293L831.357 0.500292L831.357 0.000292229L833.36 0.00029205L833.36 0.500292L837.366 0.500292L837.366 0.000291694L839.368 0.000291516L839.368 0.500292L843.374 0.500291L843.374 0.000291159L845.376 0.000290981L845.376 0.500291L849.382 0.500291L849.382 0.000290625L851.384 0.000290446L851.384 0.50029L855.39 0.50029L855.39 0.00029009L857.392 0.000289912L857.392 0.50029L861.398 0.50029L861.398 0.000289555L863.4 0.000289377L863.4 0.500289L867.406 0.500289L867.406 0.000289021L869.409 0.000288842L869.409 0.500289L873.414 0.500288L873.414 0.000288486L875.417 0.000288308L875.417 0.500288L879.422 0.500288L879.422 0.000287951L881.425 0.000287773L881.425 0.500288L885.43 0.500287L885.43 0.000287417L887.433 0.000287238L887.433 0.500287L891.438 0.500287L891.438 0.000286882L893.441 0.000286704L893.441 0.500287L897.446 0.500286L897.446 0.000286347L899.449 0.000286169L899.449 0.500286L903.454 0.500286L903.454 0.000285813L905.457 0.000285635L905.457 0.500286L909.462 0.500285L909.462 0.000285278L911.465 0.0002851L911.465 0.500285L915.47 0.500285L915.47 0.000284743L917.473 0.000284565L917.473 0.500285L921.478 0.500284L921.478 0.000284209L923.481 0.000284031L923.481 0.500284L927.486 0.500284L927.486 0.000283674L929.489 0.000283496L929.489 0.500283L933.494 0.500283L933.494 0.000283139L935.497 0.000282961L935.497 0.500283L939.502 0.500283L939.502 0.000282605L941.505 0.000282427L941.505 0.500282L945.51 0.500282L945.51 0.00028207L947.513 0.000281892L947.513 0.500282L951.519 0.500282L951.519 0.000281536L953.521 0.000281357L953.521 0.500281L957.527 0.500281L957.527 0.000281001L959.529 0.000280823L959.529 0.500281L963.535 0.50028L963.535 0.000280466L965.537 0.000280288L965.537 0.50028L969.543 0.50028L969.543 0.000279932L971.545 0.000279753L971.545 0.50028L975.551 0.500279L975.551 0.000279397L977.554 0.000279219L977.554 0.500279L981.559 0.500279L981.559 0.000278862L983.562 0.000278684L983.562 0.500279L987.567 0.500278L987.567 0.000278328L989.57 0.000278149L989.57 0.500278L993.575 0.500278L993.575 0.000277793L995.578 0.000277615L995.578 0.500278L999.583 0.500277L999.583 0.000277258L1001.59 0.00027708L1001.59 0.500277L1005.59 0.500277L1005.59 0.000276724L1007.59 0.000276545L1007.59 0.500277L1011.6 0.500276L1011.6 0.000276189L1013.6 0.000276011L1013.6 0.500276L1017.61 0.500276L1017.61 0.000275654L1019.61 0.000275476L1019.61 0.500275L1023.62 0.500275L1023.62 0.00027512L1025.62 0.000274941L1025.62 0.500275L1029.62 0.500275L1029.62 0.000274585L1031.63 0.000274407L1031.63 0.500274L1035.63 0.500274L1035.63 0.00027405L1037.63 0.000273872L1037.63 0.500274L1041.64 0.500274L1041.64 0.000273516L1043.64 0.000273337L1043.64 0.500273L1047.65 0.500273L1047.65 0.000272981L1049.65 0.000272803L1049.65 0.500273L1053.66 0.500272L1053.66 0.000272446L1055.66 0.000272268L1055.66 0.500272L1059.66 0.500272L1059.66 0.000271912L1061.67 0.000271733L1061.67 0.500272L1065.67 0.500271L1065.67 0.000271377L1067.67 0.000271199L1067.67 0.500271L1071.68 0.500271L1071.68 0.000270842L1073.68 0.000270664L1073.68 0.500271L1077.69 0.50027L1077.69 0.000270308L1079.69 0.00027013L1079.69 0.50027L1083.7 0.50027L1083.7 0.000269773L1085.7 0.000269595L1085.7 0.50027L1089.7 0.500269L1089.7 0.000269238L1091.71 0.00026906L1091.71 0.500269L1095.71 0.500269L1095.71 0.000268704L1097.71 0.000268526L1097.71 0.500269L1101.72 0.500268L1101.72 0.000268169L1103.72 0.000267991L1103.72 0.500268L1107.73 0.500268L1107.73 0.000267634L1109.73 0.000267456L1109.73 0.500267L1113.74 0.500267L1113.74 0.0002671L1115.74 0.000266922L1115.74 0.500267L1119.74 0.500267L1119.74 0.000266565L1121.75 0.000266387L1121.75 0.500266L1125.75 0.500266L1125.75 0.00026603L1127.75 0.000265852L1127.75 0.500266L1129.5 0.500266C1129.5 0.500282 1129.5 0.500299 1129.5 0.500316C1129.5 0.500333 1129.5 0.50035 1129.5 0.500366L1127.75 0.500366L1127.75 1.00037L1125.75 1.00037L1125.75 0.500367L1121.74 0.500367L1121.74 1.00037L1119.74 1.00037L1119.74 0.500367L1115.74 0.500368L1115.74 1.00037L1113.73 1.00037L1113.73 0.500368L1109.73 0.500368L1109.73 1.00037L1107.73 1.00037L1107.73 0.500368L1103.72 0.500369L1103.72 1.00037L1101.72 1.00037L1101.72 0.500369L1097.71 0.500369L1097.71 1.00037L1095.71 1.00037L1095.71 0.500369L1091.7 0.50037L1091.7 1.00037L1089.7 1.00037L1089.7 0.50037L1085.7 0.50037L1085.7 1.00037L1083.69 1.00037L1083.69 0.50037L1079.69 0.500371L1079.69 1.00037L1077.68 1.00037L1077.68 0.500371L1073.68 0.500371L1073.68 1.00037L1071.68 1.00037L1071.68 0.500371L1067.67 0.500372L1067.67 1.00037L1065.67 1.00037L1065.67 0.500372L1061.66 0.500372L1061.66 1.00037L1059.66 1.00037L1059.66 0.500373L1055.66 0.500373L1055.66 1.00037L1053.65 1.00037L1053.65 0.500373L1049.65 0.500373L1049.65 1.00037L1047.64 1.00037L1047.64 0.500374L1043.64 0.500374L1043.64 1.00037L1041.64 1.00037L1041.64 0.500374L1037.63 0.500374L1037.63 1.00037L1035.63 1.00037L1035.63 0.500375L1031.62 0.500375L1031.62 1.00038L1029.62 1.00038L1029.62 0.500375L1025.62 0.500376L1025.62 1.00038L1023.61 1.00038L1023.61 0.500376L1019.61 0.500376L1019.61 1.00038L1017.6 1.00038L1017.6 0.500376L1013.6 0.500377L1013.6 1.00038L1011.6 1.00038L1011.6 0.500377L1007.59 0.500377L1007.59 1.00038L1005.59 1.00038L1005.59 0.500377L1001.58 0.500378L1001.58 1.00038L999.581 1.00038L999.581 0.500378L995.575 0.500378L995.575 1.00038L993.573 1.00038L993.573 0.500378L989.567 0.500379L989.567 1.00038L987.565 1.00038L987.565 0.500379L983.559 0.500379L983.559 1.00038L981.557 1.00038L981.557 0.500379L977.551 0.50038L977.551 1.00038L975.549 1.00038L975.549 0.50038L971.543 0.50038L971.543 1.00038L969.54 1.00038L969.54 0.500381L965.535 0.500381L965.535 1.00038L963.532 1.00038L963.532 0.500381L959.527 0.500381L959.527 1.00038L957.524 1.00038L957.524 0.500382L953.519 0.500382L953.519 1.00038L951.516 1.00038L951.516 0.500382L947.511 0.500383L947.511 1.00038L945.508 1.00038L945.508 0.500383L941.503 0.500383L941.503 1.00038L939.5 1.00038L939.5 0.500383L935.495 0.500384L935.495 1.00038L933.492 1.00038L933.492 0.500384L929.487 0.500384L929.487 1.00038L927.484 1.00038L927.484 0.500384L923.479 0.500385L923.479 1.00038L921.476 1.00038L921.476 0.500385L917.471 0.500385L917.471 1.00039L915.468 1.00039L915.468 0.500385L911.463 0.500386L911.463 1.00039L909.46 1.00039L909.46 0.500386L905.455 0.500386L905.455 1.00039L903.452 1.00039L903.452 0.500386L899.447 0.500387L899.447 1.00039L897.444 1.00039L897.444 0.500387L893.439 0.500387L893.439 1.00039L891.436 1.00039L891.436 0.500387L887.431 0.500388L887.431 1.00039L885.428 1.00039L885.428 0.500388L881.423 0.500388L881.423 1.00039L879.42 1.00039L879.42 0.500389L875.415 0.500389L875.415 1.00039L873.412 1.00039L873.412 0.500389L869.407 0.500389L869.407 1.00039L867.404 1.00039L867.404 0.50039L863.399 0.50039L863.399 1.00039L861.396 1.00039L861.396 0.50039L857.391 0.500391L857.391 1.00039L855.388 1.00039L855.388 0.500391L851.383 0.500391L851.383 1.00039L849.38 1.00039L849.38 0.500391L845.375 0.500392L845.375 1.00039L843.372 1.00039L843.372 0.500392L839.367 0.500392L839.367 1.00039L837.364 1.00039L837.364 0.500392L833.359 0.500393L833.359 1.00039L831.356 1.00039L831.356 0.500393L827.351 0.500393L827.351 1.00039L825.348 1.00039L825.348 0.500393L821.343 0.500394L821.343 1.00039L819.34 1.00039L819.34 0.500394L815.334 0.500394L815.334 1.00039L813.332 1.00039L813.332 0.500394L809.326 0.500395L809.326 1.00039L807.324 1.00039L807.324 0.500395L803.318 0.500395L803.318 1.0004L801.316 1.0004L801.316 0.500396L797.31 0.500396L797.31 1.0004L795.308 1.0004L795.308 0.500396L791.302 0.500396L791.302 1.0004L789.3 1.0004L789.3 0.500397L785.294 0.500397L785.294 1.0004L783.292 1.0004L783.292 0.500397L779.286 0.500397L779.286 1.0004L777.284 1.0004L777.284 0.500398L773.278 0.500398L773.278 1.0004L771.276 1.0004L771.276 0.500398L767.27 0.500399L767.27 1.0004L765.268 1.0004L765.268 0.500399L761.262 0.500399L761.262 1.0004L759.26 1.0004L759.26 0.500399L755.254 0.5004L755.254 1.0004L753.252 1.0004L753.252 0.5004L749.246 0.5004L749.246 1.0004L747.244 1.0004L747.244 0.5004L743.238 0.500401L743.238 1.0004L741.235 1.0004L741.235 0.500401L737.23 0.500401L737.23 1.0004L735.227 1.0004L735.227 0.500401L731.222 0.500402L731.222 1.0004L729.219 1.0004L729.219 0.500402L725.214 0.500402L725.214 1.0004L723.211 1.0004L723.211 0.500402L719.206 0.500403L719.206 1.0004L717.203 1.0004L717.203 0.500403L713.198 0.500403L713.198 1.0004L711.195 1.0004L711.195 0.500404L707.19 0.500404L707.19 1.0004L705.187 1.0004L705.187 0.500404L701.182 0.500404L701.182 1.0004L699.179 1.0004L699.179 0.500405L695.174 0.500405L695.174 1.0004L693.171 1.00041L693.171 0.500405L689.166 0.500405L689.166 1.00041L687.163 1.00041L687.163 0.500406L683.158 0.500406L683.158 1.00041L681.155 1.00041L681.155 0.500406L677.15 0.500407L677.15 1.00041L675.147 1.00041L675.147 0.500407L671.142 0.500407L671.142 1.00041L669.139 1.00041L669.139 0.500407L665.134 0.500408L665.134 1.00041L663.131 1.00041L663.131 0.500408L659.126 0.500408L659.126 1.00041L657.123 1.00041L657.123 0.500408L653.118 0.500409L653.118 1.00041L651.115 1.00041L651.115 0.500409L647.11 0.500409L647.11 1.00041L645.107 1.00041L645.107 0.500409L641.102 0.50041L641.102 1.00041L639.099 1.00041L639.099 0.50041L635.094 0.50041L635.094 1.00041L633.091 1.00041L633.091 0.50041L629.086 0.500411L629.086 1.00041L627.083 1.00041L627.083 0.500411L623.078 0.500411L623.078 1.00041L621.075 1.00041L621.075 0.500412L617.07 0.500412L617.07 1.00041L615.067 1.00041L615.067 0.500412L611.062 0.500412L611.062 1.00041L609.059 1.00041L609.059 0.500413L605.053 0.500413L605.053 1.00041L603.051 1.00041L603.051 0.500413L599.045 0.500414L599.045 1.00041L597.043 1.00041L597.043 0.500414L593.037 0.500414L593.037 1.00041L591.035 1.00041L591.035 0.500414L587.029 0.500415L587.029 1.00041L585.027 1.00041L585.027 0.500415L581.021 0.500415L581.021 1.00042L579.019 1.00042L579.019 0.500415L575.013 0.500416L575.013 1.00042L573.011 1.00042L573.011 0.500416L569.005 0.500416L569.005 1.00042L567.003 1.00042L567.003 0.500416L562.997 0.500417L562.997 1.00042L560.994 1.00042L560.994 0.500417L556.989 0.500417L556.989 1.00042L554.986 1.00042L554.986 0.500417L550.981 0.500418L550.981 1.00042L548.978 1.00042L548.978 0.500418L544.973 0.500418L544.973 1.00042L542.97 1.00042L542.97 0.500419L538.965 0.500419L538.965 1.00042L536.962 1.00042L536.962 0.500419L532.957 0.500419L532.957 1.00042L530.954 1.00042L530.954 0.50042L526.949 0.50042L526.949 1.00042L524.946 1.00042L524.946 0.50042L520.941 0.50042L520.941 1.00042L518.938 1.00042L518.938 0.500421L514.933 0.500421L514.933 1.00042L512.93 1.00042L512.93 0.500421L508.925 0.500422L508.925 1.00042L506.922 1.00042L506.922 0.500422L502.917 0.500422L502.917 1.00042L500.914 1.00042L500.914 0.500422L496.908 0.500423L496.908 1.00042L494.906 1.00042L494.906 0.500423L490.9 0.500423L490.9 1.00042L488.898 1.00042L488.898 0.500423L484.892 0.500424L484.892 1.00042L482.89 1.00042L482.89 0.500424L478.884 0.500424L478.884 1.00042L476.882 1.00042L476.882 0.500424L472.876 0.500425L472.876 1.00042L470.874 1.00042L470.874 0.500425L466.868 0.500425L466.868 1.00043L464.866 1.00043L464.866 0.500425L460.86 0.500426L460.86 1.00043L458.857 1.00043L458.857 0.500426L454.852 0.500426L454.852 1.00043L452.849 1.00043L452.849 0.500427L448.844 0.500427L448.844 1.00043L446.841 1.00043L446.841 0.500427L442.836 0.500427L442.836 1.00043L440.833 1.00043L440.833 0.500428L436.828 0.500428L436.828 1.00043L434.825 1.00043L434.825 0.500428L430.82 0.500428L430.82 1.00043L428.817 1.00043L428.817 0.500429L424.812 0.500429L424.812 1.00043L422.809 1.00043L422.809 0.500429L418.804 0.50043L418.804 1.00043L416.801 1.00043L416.801 0.50043L412.796 0.50043L412.796 1.00043L410.793 1.00043L410.793 0.50043L406.788 0.500431L406.788 1.00043L404.785 1.00043L404.785 0.500431L400.78 0.500431L400.78 1.00043L398.777 1.00043L398.777 0.500431L394.771 0.500432L394.771 1.00043L392.769 1.00043L392.769 0.500432L388.763 0.500432L388.763 1.00043L386.761 1.00043L386.761 0.500432L382.755 0.500433L382.755 1.00043L380.753 1.00043L380.753 0.500433L376.747 0.500433L376.747 1.00043L374.745 1.00043L374.745 0.500433L370.739 0.500434L370.739 1.00043L368.737 1.00043L368.737 0.500434L364.731 0.500434L364.731 1.00043L362.729 1.00043L362.729 0.500435L358.723 0.500435L358.723 1.00043L356.72 1.00044L356.72 0.500435L352.715 0.500435L352.715 1.00044L350.712 1.00044L350.712 0.500436L346.707 0.500436L346.707 1.00044L344.704 1.00044L344.704 0.500436L340.699 0.500437L340.699 1.00044L338.696 1.00044L338.696 0.500437L334.691 0.500437L334.691 1.00044L332.688 1.00044L332.688 0.500437L328.683 0.500438L328.683 1.00044L326.68 1.00044L326.68 0.500438L322.675 0.500438L322.675 1.00044L320.672 1.00044L320.672 0.500438L316.667 0.500439L316.667 1.00044L314.664 1.00044L314.664 0.500439L310.659 0.500439L310.659 1.00044L308.656 1.00044L308.656 0.500439L304.651 0.50044L304.651 1.00044L302.648 1.00044L302.648 0.50044L298.643 0.50044L298.643 1.00044L296.64 1.00044L296.64 0.50044L292.635 0.500441L292.635 1.00044L290.632 1.00044L290.632 0.500441L286.626 0.500441L286.626 1.00044L284.624 1.00044L284.624 0.500441L280.618 0.500442L280.618 1.00044L278.616 1.00044L278.616 0.500442L274.61 0.500442L274.61 1.00044L272.608 1.00044L272.608 0.500443L268.602 0.500443L268.602 1.00044L266.6 1.00044L266.6 0.500443L262.594 0.500443L262.594 1.00044L260.592 1.00044L260.592 0.500444L256.586 0.500444L256.586 1.00044L254.583 1.00044L254.583 0.500444L250.578 0.500445L250.578 1.00044L248.575 1.00044L248.575 0.500445L244.57 0.500445L244.57 1.00045L242.567 1.00045L242.567 0.500445L238.562 0.500446L238.562 1.00045L236.559 1.00045L236.559 0.500446L232.554 0.500446L232.554 1.00045L230.551 1.00045L230.551 0.500446L226.546 0.500447L226.546 1.00045L224.543 1.00045L224.543 0.500447L220.538 0.500447L220.538 1.00045L218.535 1.00045L218.535 0.500447L214.53 0.500448L214.53 1.00045L212.527 1.00045L212.527 0.500448L208.522 0.500448L208.522 1.00045L206.519 1.00045L206.519 0.500448L202.514 0.500449L202.514 1.00045L200.511 1.00045L200.511 0.500449L196.506 0.500449L196.506 1.00045L194.503 1.00045L194.503 0.50045L190.498 0.50045L190.498 1.00045L188.495 1.00045L188.495 0.50045L184.49 0.50045L184.49 1.00045L182.487 1.00045L182.487 0.500451L178.481 0.500451L178.481 1.00045L176.479 1.00045L176.479 0.500451L172.473 0.500451L172.473 1.00045L170.471 1.00045L170.471 0.500452L166.465 0.500452L166.465 1.00045L164.463 1.00045L164.463 0.500452L160.457 0.500453L160.457 1.00045L158.455 1.00045L158.455 0.500453L154.449 0.500453L154.449 1.00045L152.447 1.00045L152.447 0.500453L148.441 0.500454L148.441 1.00045L146.438 1.00045L146.438 0.500454L142.433 0.500454L142.433 1.00045L140.43 1.00045L140.43 0.500454L136.425 0.500455L136.425 1.00045L134.422 1.00045L134.422 0.500455L130.417 0.500455L130.417 1.00046L128.414 1.00046L128.414 0.500455L124.409 0.500456L124.409 1.00046L122.406 1.00046L122.406 0.500456L118.401 0.500456L118.401 1.00046L116.398 1.00046L116.398 0.500456L112.393 0.500457L112.393 1.00046L110.39 1.00046L110.39 0.500457L106.385 0.500457L106.385 1.00046L104.382 1.00046L104.382 0.500458L100.377 0.500458L100.377 1.00046L98.3741 1.00046L98.3741 0.500458L94.3687 0.500458L94.3687 1.00046L92.366 1.00046L92.366 0.500459L88.3606 0.500459L88.3606 1.00046L86.358 1.00046L86.358 0.500459L82.3526 0.500459L82.3526 1.00046L80.3499 1.00046L80.3499 0.50046L76.3445 0.50046L76.3445 1.00046L74.3419 1.00046L74.3419 0.50046L70.3365 0.500461L70.3365 1.00046L68.3338 1.00046L68.3338 0.500461L64.3284 0.500461L64.3284 1.00046L62.3257 1.00046L62.3257 0.500461L58.3204 0.500462L58.3204 1.00046L56.3177 1.00046L56.3177 0.500462L52.3123 0.500462L52.3123 1.00046L50.3096 1.00046L50.3096 0.500462L46.3042 0.500463L46.3042 1.00046L44.3016 1.00046L44.3016 0.500463L40.2962 0.500463L40.2962 1.00046L38.2935 1.00046L38.2935 0.500463L34.2881 0.500464L34.2881 1.00046L32.2854 1.00046L32.2854 0.500464L28.2801 0.500464L28.2801 1.00046L26.2774 1.00046L26.2774 0.500464L22.2721 0.500465L22.2721 1.00046L20.2694 1.00047L20.2694 0.500465L16.264 0.500465L16.264 1.00047L14.2613 1.00047L14.2613 0.500466L10.2559 0.500466L10.2559 1.00047L8.25326 1.00047L8.25326 0.500466L4.24789 0.500466L4.24789 1.00047L2.2452 1.00047L2.2452 0.500467L0.5 0.500467C0.5 0.50045 0.5 0.500433 0.5 0.500416ZM1129.75 0.206431L1129.91 0.113271C1129.94 0.163279 1129.96 0.227449 1129.98 0.300764L1129.75 0.348942L1129.51 0.402049C1129.49 0.385658 1129.48 0.373267 1129.48 0.370342L1129.75 0.206431ZM1129.75 0.65169L1129.98 0.699868C1129.96 0.773183 1129.94 0.837353 1129.91 0.887361L1129.75 0.794201L1129.48 0.63029C1129.48 0.627365 1129.49 0.614974 1129.51 0.598583L1129.75 0.65169Z"
      stroke="url(#paint0_linear_296_3959)" stroke-opacity="0.5" stroke-dasharray="4 2" />
  </g>
  <defs>
    <filter id="filter0_b_296_3959" x="-10" y="-9.99976" width="1150" height="21.0002"
      filterUnits="userSpaceOnUse" color-interpolation-filters="sRGB">
      <feFlood flood-opacity="0" result="BackgroundImageFix" />
      <feGaussianBlur in="BackgroundImageFix" stdDeviation="5" />
      <feComposite in2="SourceAlpha" operator="in" result="effect1_backgroundBlur_296_3959" />
      <feBlend mode="normal" in="SourceGraphic" in2="effect1_backgroundBlur_296_3959" result="shape" />
    </filter>
    <linearGradient id="paint0_linear_296_3959" x1="8.4621e-06" y1="0.500417" x2="1130"
      y2="0.511432" gradientUnits="userSpaceOnUse">
      <stop stop-color="#106EBD" />
      <stop offset="1" stop-color="#10BCB3" />
    </linearGradient>
  </defs>
</svg>