<svg xmlns="http://www.w3.org/2000/svg" width="56" height="56" viewBox="0 0 56 56" fill="none">
  <circle cx="28" cy="28" r="28" fill="white" />
  <path
    d="M43.0898 51V43.3099C48.1257 39.2729 51 33.4314 51 27.1826C51 15.8542 41.3152 6 28.5 6C15.8094 6 6 15.724 6 27.1826C6 38.5111 15.6848 48.3652 28.5 48.3652C30.573 48.3652 32.6223 48.1005 34.5995 47.5776L43.0898 51Z"
    fill="url(#paint0_radial_432_2327)" />
  <path
    d="M38.0123 36.2993C39.6607 36.2993 41 34.9599 41 33.3115V20.9877C41 19.3393 39.6607 18 38.0123 18H19.9877C18.3393 18 17 19.3393 17 20.9877V33.3066C17 34.955 18.3393 36.2944 19.9877 36.2944H38.0123V36.2993ZM20.0564 22.1603C19.7473 21.8953 19.7081 21.4342 19.973 21.1251C20.2379 20.816 20.6991 20.7768 21.0082 21.0417L29 27.8217L36.9967 21.0368C37.3058 20.7719 37.7719 20.8111 38.0319 21.1202C38.2968 21.4293 38.2576 21.8953 37.9485 22.1554L32.2428 27.0025L37.9779 32.399C38.2723 32.6787 38.287 33.1447 38.0074 33.4391C37.8602 33.5912 37.6688 33.6697 37.4726 33.6697C37.2911 33.6697 37.1096 33.601 36.9673 33.4685L31.1145 27.964L29.4808 29.3524C29.3434 29.4702 29.1717 29.529 29.0049 29.529C28.8332 29.529 28.6664 29.4702 28.529 29.3524L26.8904 27.964L21.0376 33.4734C20.8953 33.6059 20.7138 33.6746 20.5323 33.6746C20.3361 33.6746 20.1398 33.5961 19.9975 33.444C19.7179 33.1496 19.7326 32.6836 20.027 32.4039L25.7621 27.0025L20.0564 22.1603Z"
    fill="white" />
  <defs>
    <radialGradient id="paint0_radial_432_2327" cx="0" cy="0" r="1" gradientUnits="userSpaceOnUse"
      gradientTransform="translate(51 6) rotate(135) scale(63.6396)">
      <stop stop-color="#0FBDB3" />
      <stop offset="1" stop-color="#0F6ABD" />
    </radialGradient>
  </defs>
</svg>