<svg xmlns="http://www.w3.org/2000/svg" width="72" height="72" viewBox="0 0 72 72" fill="none">
  <g clip-path="url(#clip0_296_5813)">
    <path
      d="M36 72C55.8823 72 72 55.8823 72 36C72 16.1177 55.8823 0 36 0C16.1177 0 0 16.1177 0 36C0 55.8823 16.1177 72 36 72Z"
      fill="#627EEA" />
    <path d="M37.1205 9V28.9575L53.9887 36.495L37.1205 9Z" fill="white" fill-opacity="0.602" />
    <path d="M37.1205 9L20.25 36.495L37.1205 28.9575V9Z" fill="white" />
    <path d="M37.1205 49.4277V62.9885L54 39.6357L37.1205 49.4277Z" fill="white" fill-opacity="0.602" />
    <path d="M37.1205 62.9885V49.4255L20.25 39.6357L37.1205 62.9885Z" fill="white" />
    <path d="M37.1205 46.2893L53.9887 36.495L37.1205 28.962V46.2893Z" fill="white"
      fill-opacity="0.2" />
    <path d="M20.25 36.495L37.1205 46.2893V28.962L20.25 36.495Z" fill="white" fill-opacity="0.602" />
  </g>
  <defs>
    <clipPath id="clip0_296_5813">
      <rect width="72" height="72" fill="white" />
    </clipPath>
  </defs>
</svg>