<svg xmlns="http://www.w3.org/2000/svg" width="40" height="40" viewBox="0 0 40 40" fill="none">
  <path
    d="M28.8342 39H11.166C8.70993 39 6.71179 37.0023 6.71179 34.5469C6.71179 33.7271 7.3765 33.0625 8.19652 33.0625C9.01653 33.0625 9.68124 33.7271 9.68124 34.5469C9.68124 35.3654 10.3473 36.0312 11.166 36.0312H28.8342C29.6528 36.0312 30.3189 35.3654 30.3189 34.5469V26.0859C30.3919 24.1185 33.216 24.12 33.2883 26.0859V34.5469C33.2883 37.0023 31.2902 39 28.8342 39ZM8.19652 15.3984C7.3765 15.3984 6.71179 14.7339 6.71179 13.9141V5.45312C6.71179 2.99767 8.70993 1 11.166 1H28.8342C31.2902 1 33.2883 2.99767 33.2883 5.45312C33.2883 6.27295 32.6236 6.9375 31.8036 6.9375C30.9836 6.9375 30.3189 6.27295 30.3189 5.45312C30.3189 4.63464 29.6528 3.96875 28.8342 3.96875H25.5571C25.5367 4.02634 24.769 5.56995 24.769 5.56995C24.3473 6.41337 23.4992 6.9375 22.5557 6.9375H17.4444C16.5009 6.9375 15.6528 6.41337 15.2311 5.56972C15.2311 5.56972 14.4634 4.02634 14.443 3.96875H11.166C10.3473 3.96875 9.68124 4.63464 9.68124 5.45312V13.9141C9.68124 14.7339 9.01653 15.3984 8.19652 15.3984Z"
    fill="black" />
  <path
    d="M9.42892 29.7891C9.16501 29.9905 8.84743 30.0937 8.52755 30.0937C8.30343 30.0937 8.07812 30.043 7.86959 29.9399C7.36337 29.6896 7.04305 29.1739 7.04305 28.6093V25.7148H1.47533C-0.491034 25.6425 -0.492519 22.819 1.47533 22.7461H7.04305V19.8515C7.04305 19.2861 7.36434 18.7698 7.87174 18.52C8.37922 18.2701 8.9844 18.3302 9.43278 18.6748L15.149 23.0684C15.9175 23.6387 15.9158 24.8569 15.1451 25.4248L9.42892 29.7891Z"
    fill="#2D9AD7" />
  <path
    d="M32.1304 21.5729C31.9219 21.6761 31.6966 21.7268 31.4725 21.7268C31.1526 21.7268 30.835 21.6236 30.5712 21.4221L24.855 17.0579C24.0844 16.4901 24.0824 15.2719 24.8511 14.7015L30.5673 10.3079C31.5232 9.55685 32.9697 10.2687 32.957 11.4846V14.3791H38.5247C40.491 14.4514 40.4925 17.2749 38.5247 17.3479H32.957V20.2424C32.957 20.807 32.6366 21.3227 32.1304 21.5729Z"
    fill="#2D9AD7" />
</svg>