<svg xmlns="http://www.w3.org/2000/svg" width="50" height="50" viewBox="0 0 50 50" fill="none">
  <path
    d="M1 25C1 11.7452 11.7452 1 25 1C38.2548 1 49 11.7452 49 25C49 38.2548 38.2548 49 25 49C11.7452 49 1 38.2548 1 25Z"
    stroke="white" stroke-width="2" />
  <g clip-path="url(#clip0_296_5712)">
    <path
      d="M25.8846 22.13V23.5378C25.8846 23.9849 25.9739 24.36 26.1502 24.6522C26.3933 25.0555 26.7923 25.2867 27.2454 25.2867C27.6893 25.2867 28.1304 25.0705 28.5564 24.6445L33.2061 19.9948C34.227 18.9739 34.227 17.3128 33.2061 16.2919L28.5564 11.6422C28.1304 11.216 27.6893 11 27.2454 11C26.568 11 25.8846 11.5409 25.8846 12.7489V14.0275C19.2832 14.4173 13.8183 19.4834 13.0061 26.1162C12.9606 26.4866 13.1713 26.8412 13.5184 26.9786C13.6167 27.0175 13.719 27.0363 13.8201 27.0363C14.076 27.0363 14.3242 26.9164 14.4823 26.7004C16.6608 23.7238 20.1587 21.9467 23.839 21.9467C24.5209 21.9467 25.2066 22.0082 25.8846 22.13Z"
      fill="white" />
    <path
      d="M25.8846 22.13V23.5378C25.8846 23.9849 25.9739 24.36 26.1502 24.6522C26.3933 25.0555 26.7923 25.2867 27.2454 25.2867C27.6893 25.2867 28.1304 25.0705 28.5564 24.6445L33.2061 19.9948C34.227 18.9739 34.227 17.3128 33.2061 16.2919L28.5564 11.6422C28.1304 11.216 27.6893 11 27.2454 11C26.568 11 25.8846 11.5409 25.8846 12.7489V14.0275C19.2832 14.4173 13.8183 19.4834 13.0061 26.1162C12.9606 26.4866 13.1713 26.8412 13.5184 26.9786C13.6167 27.0175 13.719 27.0363 13.8201 27.0363C14.076 27.0363 14.3242 26.9164 14.4823 26.7004C16.6608 23.7238 20.1587 21.9467 23.839 21.9467C24.5209 21.9467 25.2066 22.0082 25.8846 22.13Z"
      fill="url(#paint0_linear_296_5712)" fill-opacity="0.5" />
    <path
      d="M25.8846 22.13V23.5378C25.8846 23.9849 25.9739 24.36 26.1502 24.6522C26.3933 25.0555 26.7923 25.2867 27.2454 25.2867C27.6893 25.2867 28.1304 25.0705 28.5564 24.6445L33.2061 19.9948C34.227 18.9739 34.227 17.3128 33.2061 16.2919L28.5564 11.6422C28.1304 11.216 27.6893 11 27.2454 11C26.568 11 25.8846 11.5409 25.8846 12.7489V14.0275C19.2832 14.4173 13.8183 19.4834 13.0061 26.1162C12.9606 26.4866 13.1713 26.8412 13.5184 26.9786C13.6167 27.0175 13.719 27.0363 13.8201 27.0363C14.076 27.0363 14.3242 26.9164 14.4823 26.7004C16.6608 23.7238 20.1587 21.9467 23.839 21.9467C24.5209 21.9467 25.2066 22.0082 25.8846 22.13Z"
      fill="url(#paint1_radial_296_5712)" fill-opacity="0.5" />
    <path
      d="M36.967 23.0214C36.6198 22.8839 36.2238 22.9984 36.0031 23.2998C33.8248 26.2762 30.3269 28.0533 26.6466 28.0533C25.9647 28.0533 25.279 27.9918 24.601 27.87V26.4622C24.601 25.2542 23.9174 24.7133 23.2402 24.7133C22.7963 24.7133 22.3551 24.9295 21.929 25.3557L17.2793 30.0052C16.2586 31.0261 16.2586 32.6872 17.2795 33.7083L21.929 38.3578C22.3551 38.784 22.7963 39 23.2402 39C23.9174 39 24.601 38.4591 24.601 37.2511V35.9725C31.2026 35.5827 36.6673 30.5166 37.4794 23.884C37.5249 23.5134 37.3143 23.1588 36.967 23.0214Z"
      fill="white" />
    <path
      d="M36.967 23.0214C36.6198 22.8839 36.2238 22.9984 36.0031 23.2998C33.8248 26.2762 30.3269 28.0533 26.6466 28.0533C25.9647 28.0533 25.279 27.9918 24.601 27.87V26.4622C24.601 25.2542 23.9174 24.7133 23.2402 24.7133C22.7963 24.7133 22.3551 24.9295 21.929 25.3557L17.2793 30.0052C16.2586 31.0261 16.2586 32.6872 17.2795 33.7083L21.929 38.3578C22.3551 38.784 22.7963 39 23.2402 39C23.9174 39 24.601 38.4591 24.601 37.2511V35.9725C31.2026 35.5827 36.6673 30.5166 37.4794 23.884C37.5249 23.5134 37.3143 23.1588 36.967 23.0214Z"
      fill="url(#paint2_linear_296_5712)" fill-opacity="0.5" />
    <path
      d="M36.967 23.0214C36.6198 22.8839 36.2238 22.9984 36.0031 23.2998C33.8248 26.2762 30.3269 28.0533 26.6466 28.0533C25.9647 28.0533 25.279 27.9918 24.601 27.87V26.4622C24.601 25.2542 23.9174 24.7133 23.2402 24.7133C22.7963 24.7133 22.3551 24.9295 21.929 25.3557L17.2793 30.0052C16.2586 31.0261 16.2586 32.6872 17.2795 33.7083L21.929 38.3578C22.3551 38.784 22.7963 39 23.2402 39C23.9174 39 24.601 38.4591 24.601 37.2511V35.9725C31.2026 35.5827 36.6673 30.5166 37.4794 23.884C37.5249 23.5134 37.3143 23.1588 36.967 23.0214Z"
      fill="url(#paint3_radial_296_5712)" fill-opacity="0.5" />
  </g>
  <defs>
    <linearGradient id="paint0_linear_296_5712" x1="16.5432" y1="15.1506" x2="36.8075" y2="31.5713"
      gradientUnits="userSpaceOnUse">
      <stop stop-color="white" stop-opacity="0.47" />
      <stop offset="1" stop-color="white" stop-opacity="0" />
    </linearGradient>
    <radialGradient id="paint1_radial_296_5712" cx="0" cy="0" r="1" gradientUnits="userSpaceOnUse"
      gradientTransform="translate(22.2181 18.0494) rotate(57.5694) scale(14.9867 14.2653)">
      <stop stop-color="white" />
      <stop offset="1" stop-color="white" stop-opacity="0" />
    </radialGradient>
    <linearGradient id="paint2_linear_296_5712" x1="16.5432" y1="15.1506" x2="36.8075" y2="31.5713"
      gradientUnits="userSpaceOnUse">
      <stop stop-color="white" stop-opacity="0.47" />
      <stop offset="1" stop-color="white" stop-opacity="0" />
    </linearGradient>
    <radialGradient id="paint3_radial_296_5712" cx="0" cy="0" r="1" gradientUnits="userSpaceOnUse"
      gradientTransform="translate(22.2181 18.0494) rotate(57.5694) scale(14.9867 14.2653)">
      <stop stop-color="white" />
      <stop offset="1" stop-color="white" stop-opacity="0" />
    </radialGradient>
    <clipPath id="clip0_296_5712">
      <rect width="28" height="28" fill="white" transform="translate(11 11)" />
    </clipPath>
  </defs>
</svg>