<svg xmlns="http://www.w3.org/2000/svg" width="190" height="38" viewBox="0 0 190 38" fill="none">
  <path
    d="M183.09 22.5V12.24H180V9.26995H183.09V4.19995H186.78V9.26995H189.87V12.24H186.78V22.5H183.09Z"
    fill="white" />
  <path
    d="M171.53 22.77C170.09 22.77 168.8 22.49 167.66 21.93C166.52 21.35 165.62 20.55 164.96 19.53C164.32 18.49 164 17.27 164 15.87C164 14.53 164.32 13.34 164.96 12.3C165.62 11.26 166.51 10.45 167.63 9.86997C168.75 9.26997 170.02 8.96997 171.44 8.96997C172.74 8.96997 173.93 9.25997 175.01 9.83997C176.11 10.42 176.99 11.23 177.65 12.27C178.31 13.31 178.64 14.51 178.64 15.87V16.71H167V14.34H175.01C174.93 13.54 174.56 12.88 173.9 12.36C173.26 11.84 172.46 11.58 171.5 11.58C170.7 11.58 170.02 11.75 169.46 12.09C168.92 12.41 168.5 12.87 168.2 13.47C167.92 14.07 167.78 14.77 167.78 15.57C167.78 16.47 167.94 17.25 168.26 17.91C168.58 18.57 169.01 19.08 169.55 19.44C170.11 19.8 170.72 19.98 171.38 19.98C172 19.98 172.57 19.91 173.09 19.77C173.63 19.61 174.1 19.41 174.5 19.17C174.92 18.91 175.25 18.63 175.49 18.33L177.71 20.22C177.31 20.7 176.78 21.14 176.12 21.54C175.48 21.92 174.76 22.22 173.96 22.44C173.18 22.66 172.37 22.77 171.53 22.77Z"
    fill="white" />
  <path d="M158 22.5V0H161.69V22.5H158Z" fill="white" />
  <path d="M151 22.5V0H154.69V22.5H151Z" fill="white" />
  <path
    d="M139.54 22.8C138.3 22.8 137.18 22.48 136.18 21.84C135.2 21.2 134.42 20.35 133.84 19.29C133.28 18.23 133 17.1 133 15.9C133 14.68 133.28 13.55 133.84 12.51C134.42 11.47 135.2 10.62 136.18 9.95997C137.18 9.29997 138.3 8.96997 139.54 8.96997C140.46 8.96997 141.32 9.14997 142.12 9.50997C142.94 9.84997 143.64 10.38 144.22 11.1V9.29997H147.91V22.5H144.22V20.7C143.88 21.16 143.46 21.55 142.96 21.87C142.46 22.17 141.91 22.4 141.31 22.56C140.73 22.72 140.14 22.8 139.54 22.8ZM140.56 19.71C141.26 19.71 141.88 19.53 142.42 19.17C142.98 18.81 143.42 18.34 143.74 17.76C144.06 17.18 144.22 16.56 144.22 15.9C144.22 15.22 144.06 14.6 143.74 14.04C143.42 13.46 142.98 12.99 142.42 12.63C141.88 12.27 141.26 12.09 140.56 12.09C139.86 12.09 139.23 12.27 138.67 12.63C138.13 12.99 137.7 13.46 137.38 14.04C137.06 14.6 136.9 15.22 136.9 15.9C136.9 16.56 137.06 17.18 137.38 17.76C137.7 18.34 138.13 18.81 138.67 19.17C139.23 19.53 139.86 19.71 140.56 19.71Z"
    fill="white" />
  <path
    d="M111.11 22.5001L107 2.1001H111.02L113.96 18.0601L113.18 18.0001L118.22 2.1301H121.46L126.47 18.0001L125.72 18.0601L128.66 2.1001H132.68L128.57 22.5001H124.67L119.36 6.0001H120.35L115.01 22.5001H111.11Z"
    fill="white" />
  <path d="M100 22.5V0H103.69V22.5H100Z" fill="white" />
  <path d="M93 22.5V0H96.69V22.5H93Z" fill="white" />
  <path
    d="M83.53 22.77C82.09 22.77 80.8 22.49 79.66 21.93C78.52 21.35 77.62 20.55 76.96 19.53C76.32 18.49 76 17.27 76 15.87C76 14.53 76.32 13.34 76.96 12.3C77.62 11.26 78.51 10.45 79.63 9.86997C80.75 9.26997 82.02 8.96997 83.44 8.96997C84.74 8.96997 85.93 9.25997 87.01 9.83997C88.11 10.42 88.99 11.23 89.65 12.27C90.31 13.31 90.64 14.51 90.64 15.87V16.71H79V14.34H87.01C86.93 13.54 86.56 12.88 85.9 12.36C85.26 11.84 84.46 11.58 83.5 11.58C82.7 11.58 82.02 11.75 81.46 12.09C80.92 12.41 80.5 12.87 80.2 13.47C79.92 14.07 79.78 14.77 79.78 15.57C79.78 16.47 79.94 17.25 80.26 17.91C80.58 18.57 81.01 19.08 81.55 19.44C82.11 19.8 82.72 19.98 83.38 19.98C84 19.98 84.57 19.91 85.09 19.77C85.63 19.61 86.1 19.41 86.5 19.17C86.92 18.91 87.25 18.63 87.49 18.33L89.71 20.22C89.31 20.7 88.78 21.14 88.12 21.54C87.48 21.92 86.76 22.22 85.96 22.44C85.18 22.66 84.37 22.77 83.53 22.77Z"
    fill="white" />
  <path
    d="M53.7702 22.5001L49.6602 2.1001H53.6802L56.6202 18.0601L55.8402 18.0001L60.8802 2.1301H64.1202L69.1302 18.0001L68.3802 18.0601L71.3202 2.1001H75.3402L71.2302 22.5001H67.3302L62.0202 6.0001H63.0102L57.6702 22.5001H53.7702Z"
    fill="white" />
  <path d="M184.48 37.7102V31.5702H182.43V30.9102H187.23V31.5702H185.18V37.7102H184.48Z"
    fill="white" />
  <path
    d="M171.93 37.8101C171.45 37.8101 171 37.7201 170.58 37.5401C170.16 37.3534 169.79 37.1001 169.47 36.7801C169.15 36.4534 168.897 36.0801 168.71 35.6601C168.53 35.2401 168.44 34.7901 168.44 34.3101C168.44 33.8301 168.53 33.3801 168.71 32.9601C168.89 32.5401 169.14 32.1701 169.46 31.8501C169.787 31.5234 170.16 31.2701 170.58 31.0901C171 30.9101 171.45 30.8201 171.93 30.8201C172.417 30.8201 172.87 30.9101 173.29 31.0901C173.717 31.2701 174.09 31.5201 174.41 31.8401C174.73 32.1601 174.98 32.5301 175.16 32.9501C175.34 33.3701 175.43 33.8234 175.43 34.3101C175.43 34.8101 175.337 35.2734 175.15 35.7001C174.963 36.1201 174.707 36.4901 174.38 36.8101C174.053 37.1234 173.68 37.3701 173.26 37.5501C172.84 37.7234 172.397 37.8101 171.93 37.8101ZM171.93 37.1101C172.323 37.1101 172.687 37.0401 173.02 36.9001C173.36 36.7534 173.657 36.5534 173.91 36.3001C174.17 36.0401 174.37 35.7401 174.51 35.4001C174.657 35.0601 174.73 34.6967 174.73 34.3101C174.73 33.9234 174.657 33.5634 174.51 33.2301C174.37 32.8901 174.17 32.5934 173.91 32.3401C173.657 32.0801 173.36 31.8801 173.02 31.7401C172.68 31.5934 172.317 31.5201 171.93 31.5201C171.543 31.5201 171.18 31.5934 170.84 31.7401C170.507 31.8801 170.21 32.0801 169.95 32.3401C169.697 32.5934 169.497 32.8901 169.35 33.2301C169.21 33.5634 169.14 33.9234 169.14 34.3101C169.14 34.6967 169.21 35.0601 169.35 35.4001C169.497 35.7401 169.697 36.0401 169.95 36.3001C170.21 36.5534 170.507 36.7534 170.84 36.9001C171.18 37.0401 171.543 37.1101 171.93 37.1101Z"
    fill="white" />
  <path
    d="M157 37.7299V30.9299H158.84C159.273 30.9299 159.647 30.9966 159.96 31.1299C160.273 31.2566 160.513 31.4399 160.68 31.6799C160.853 31.9133 160.94 32.1933 160.94 32.5199C160.94 32.8199 160.88 33.1066 160.76 33.3799C160.64 33.6466 160.433 33.8466 160.14 33.9799C160.427 34.0533 160.663 34.1799 160.85 34.3599C161.043 34.5399 161.19 34.7566 161.29 35.0099C161.39 35.2566 161.44 35.5299 161.44 35.8299C161.44 36.2099 161.34 36.5433 161.14 36.8299C160.94 37.1099 160.663 37.3299 160.31 37.4899C159.957 37.6499 159.547 37.7299 159.08 37.7299H157ZM157.7 37.0599H159.28C159.713 37.0599 160.063 36.9366 160.33 36.6899C160.603 36.4366 160.74 36.1066 160.74 35.6999C160.74 35.4533 160.677 35.2366 160.55 35.0499C160.43 34.8566 160.267 34.7033 160.06 34.5899C159.86 34.4766 159.637 34.4199 159.39 34.4199H157.7V37.0599ZM157.7 33.7199H159.04C159.38 33.7199 159.663 33.6366 159.89 33.4699C160.123 33.2966 160.24 33.0166 160.24 32.6299C160.24 32.2833 160.123 32.0266 159.89 31.8599C159.657 31.6866 159.307 31.5999 158.84 31.5999H157.7V33.7199Z"
    fill="white" />
  <path
    d="M136.04 37.7302L137.53 30.9102H137.8L139.86 36.3002L141.92 30.9102H142.18L143.67 37.7302H142.96L141.9 32.8902L140.03 37.6902H139.69L137.81 32.8902L136.76 37.7302H136.04Z"
    fill="white" />
  <path
    d="M123.07 37.7299L125.87 30.9299H126.25L129.04 37.7299H128.28L127.55 35.8799H124.56L123.83 37.7299H123.07ZM124.82 35.2299H127.29L126.06 32.0999L124.82 35.2299Z"
    fill="white" />
  <path
    d="M111.62 37.7299V30.9299H113.8C114.206 30.9299 114.573 31.0199 114.9 31.1999C115.226 31.3733 115.483 31.6166 115.67 31.9299C115.863 32.2366 115.96 32.5866 115.96 32.9799C115.96 33.3666 115.87 33.7099 115.69 34.0099C115.51 34.3099 115.27 34.5499 114.97 34.7299C114.676 34.9033 114.346 35.0033 113.98 35.0299L116.07 37.7299H115.13L113.14 35.0399H112.32V37.7299H111.62ZM112.32 34.3699H113.9C114.18 34.3699 114.42 34.3066 114.62 34.1799C114.826 34.0466 114.983 33.8733 115.09 33.6599C115.203 33.4466 115.26 33.2133 115.26 32.9599C115.26 32.6999 115.203 32.4699 115.09 32.2699C114.983 32.0633 114.83 31.8999 114.63 31.7799C114.43 31.6599 114.186 31.5999 113.9 31.5999H112.32V34.3699Z"
    fill="white" />
  <path
    d="M101.11 37.81C100.63 37.81 100.18 37.72 99.7599 37.54C99.3399 37.36 98.9665 37.11 98.6399 36.79C98.3199 36.47 98.0665 36.0967 97.8799 35.67C97.6999 35.2434 97.6099 34.7867 97.6099 34.3C97.6099 33.84 97.6965 33.4 97.8699 32.98C98.0499 32.56 98.2932 32.1867 98.5999 31.86C98.9132 31.5334 99.2765 31.2767 99.6899 31.09C100.11 30.8967 100.56 30.8 101.04 30.8C101.593 30.8 102.1 30.9067 102.56 31.12C103.02 31.3267 103.417 31.62 103.75 32C104.083 32.3734 104.323 32.81 104.47 33.31H103.73C103.517 32.7567 103.173 32.3167 102.7 31.99C102.233 31.6634 101.703 31.5 101.11 31.5C100.723 31.5 100.36 31.5734 100.02 31.72C99.6799 31.86 99.3799 32.06 99.1199 32.32C98.8665 32.5734 98.6665 32.87 98.5199 33.21C98.3799 33.5434 98.3099 33.9067 98.3099 34.3C98.3099 34.6867 98.3799 35.05 98.5199 35.39C98.6665 35.7234 98.8665 36.02 99.1199 36.28C99.3732 36.54 99.6699 36.7434 100.01 36.89C100.35 37.0367 100.717 37.11 101.11 37.11C101.523 37.11 101.913 37.03 102.28 36.87C102.647 36.71 102.963 36.4834 103.23 36.19C103.503 35.8967 103.707 35.5534 103.84 35.16H101.08V34.55H104.62L104.55 34.97C104.477 35.3967 104.333 35.7834 104.12 36.13C103.907 36.4767 103.64 36.7767 103.32 37.03C103.007 37.2767 102.66 37.47 102.28 37.61C101.907 37.7434 101.517 37.81 101.11 37.81Z"
    fill="white" />
  <path
    d="M86.5698 37.7299V30.9299H90.6098V31.5799H87.2698V33.9999H90.5098V34.6599H87.2698V37.0799H90.6098V37.7299H86.5698Z"
    fill="white" />
  <path d="M76.04 37.7299V30.9299H76.74V37.0299H79.57V37.7299H76.04Z" fill="white" />
  <path
    d="M65 37.7299V30.9299H69.04V31.5799H65.7V33.9999H68.94V34.6599H65.7V37.0799H69.04V37.7299H65Z"
    fill="white" />
  <path d="M55.2502 37.7102V31.5702H53.2002V30.9102H58.0002V31.5702H55.9502V37.7102H55.2502Z"
    fill="white" />
  <g clip-path="url(#clip0_357_3093)">
    <path
      d="M2.21567 23.1779C0.495096 21.4573 0.497526 18.6653 2.22109 16.9417L17.8251 1.33772C19.5486 -0.385844 22.3407 -0.388273 24.0612 1.3323L35.7439 13.0149C37.4644 14.7355 37.462 17.5275 35.7384 19.2511L17.0137 37.9759L2.21567 23.1779Z"
      fill="url(#paint0_linear_357_3093)" />
    <path
      d="M15.1568 17.9873C16.303 19.1335 16.303 20.9918 15.1568 22.138C14.0107 23.2841 12.1523 23.2841 11.0062 22.138C9.86 20.9918 9.86 19.1335 11.0062 17.9873C12.1523 16.8411 14.0107 16.8411 15.1568 17.9873Z"
      fill="white" />
    <path
      d="M23.0212 10.1228C24.1674 11.269 24.1674 13.1273 23.0212 14.2735C21.8751 15.4196 20.0167 15.4196 18.8706 14.2735C17.7244 13.1273 17.7244 11.269 18.8706 10.1228C20.0167 8.97664 21.8751 8.97664 23.0212 10.1228Z"
      fill="white" />
    <path
      d="M25.8325 29.1572L17.0137 37.976L29.1853 34.6974C30.3622 34.3804 30.6665 32.8515 29.6997 32.1127L25.8325 29.1572Z"
      fill="#10B4B5" />
  </g>
  <defs>
    <linearGradient id="paint0_linear_357_3093" x1="30.1413" y1="4.07933" x2="3.23669" y2="29.6861"
      gradientUnits="userSpaceOnUse">
      <stop stop-color="#0FBDB3" />
      <stop offset="1" stop-color="#0F6ABD" />
    </linearGradient>
    <clipPath id="clip0_357_3093">
      <rect width="38" height="38" fill="white" />
    </clipPath>
  </defs>
</svg>