<svg xmlns="http://www.w3.org/2000/svg" width="2304" height="493" viewBox="0 0 2304 493" fill="none">
  <g filter="url(#filter0_b_323_1588)">
    <mask id="path-1-inside-1_323_1588" fill="white">
      <path
        d="M0.163014 426.346C0.274997 426.261 312.387 184.175 312.499 184.09C470.074 64.1446 668.758 -1.58595 866.617 0.17077C1187.68 3.38711 1491.24 177.705 1812.24 166.546C1834.65 165.669 1858.75 163.229 1875.36 148.558C1891.96 133.887 1895.72 102.193 1876.26 90.9409C1859.22 80.6049 1835.67 93.1944 1828.05 111.827C1820.6 129.978 1824.62 151.375 1830.88 169.761C1856.24 243.972 1914.39 303.034 1980.09 345.092C2045.8 387.151 2119.78 414.687 2192.54 443.969C2229.72 458.869 2267.24 474.755 2304 492.251" />
    </mask>
    <path
      d="M866.617 0.17077L866.627 -0.829176L866.626 -0.829174L866.617 0.17077ZM1812.24 166.546L1812.27 167.545L1812.28 167.545L1812.24 166.546ZM1876.26 90.9409L1875.74 91.796L1875.75 91.8014L1875.76 91.8066L1876.26 90.9409ZM1828.05 111.827L1828.97 112.207L1828.97 112.206L1828.05 111.827ZM1830.88 169.761L1829.94 170.084L1829.94 170.085L1830.88 169.761ZM2192.54 443.969L2192.17 444.897L2192.17 444.897L2192.54 443.969ZM312.499 184.09L311.894 183.294L312.499 184.09ZM866.607 1.17072C1026.98 2.77733 1183.01 47.1181 1339.19 89.7138C1495.32 132.296 1651.6 173.131 1812.27 167.545L1812.2 165.547C1651.88 171.12 1495.88 130.375 1339.71 87.7843C1183.6 45.2068 1027.31 0.780543 866.627 -0.829176L866.607 1.17072ZM1812.28 167.545C1834.66 166.669 1859.11 164.242 1876.02 149.307L1874.7 147.808C1858.39 162.216 1834.63 164.669 1812.2 165.547L1812.28 167.545ZM1876.02 149.307C1884.55 141.775 1889.74 129.921 1890.33 118.519C1890.93 107.112 1886.92 95.947 1876.76 90.0752L1875.76 91.8066C1885.07 97.1865 1888.91 107.495 1888.34 118.415C1887.77 129.341 1882.78 140.67 1874.7 147.808L1876.02 149.307ZM1876.78 90.0858C1867.9 84.7017 1857.39 85.328 1848.2 89.6145C1839.02 93.8986 1831.04 101.885 1827.12 111.448L1828.97 112.206C1832.68 103.137 1840.29 95.5119 1849.05 91.427C1857.8 87.3446 1867.58 86.8441 1875.74 91.796L1876.78 90.0858ZM1827.12 111.448C1819.53 129.951 1823.66 151.65 1829.94 170.084L1831.83 169.439C1825.58 151.1 1821.67 130.004 1828.97 112.207L1827.12 111.448ZM1829.94 170.085C1855.39 244.582 1913.73 303.802 1979.55 345.935L1980.63 344.25C1915.04 302.265 1857.09 243.363 1831.83 169.438L1829.94 170.085ZM1979.55 345.935C2045.36 388.057 2119.44 415.631 2192.17 444.897L2192.91 443.041C2120.11 413.742 2046.24 386.246 1980.63 344.25L1979.55 345.935ZM0.769084 427.142C0.829638 427.096 78.8925 366.548 156.944 306.008C195.972 275.737 235 245.465 264.278 222.756C278.917 211.402 291.119 201.938 299.664 195.31C303.937 191.996 307.295 189.391 309.587 187.614C310.733 186.725 311.613 186.043 312.207 185.582C312.805 185.118 313.106 184.884 313.105 184.885L311.894 183.294C311.833 183.34 233.77 243.889 155.718 304.428C116.69 334.699 77.6622 364.971 48.3842 387.68C33.7452 399.034 21.5437 408.498 12.9984 415.126C8.72577 418.44 5.36721 421.045 3.07505 422.822C1.92898 423.711 1.0495 424.394 0.455693 424.854C-0.142546 425.318 -0.444087 425.552 -0.443057 425.551L0.769084 427.142ZM313.105 184.885C470.502 65.0753 668.97 -0.584027 866.608 1.17071L866.626 -0.829174C668.545 -2.58787 469.645 63.214 311.894 183.294L313.105 184.885ZM2192.17 444.897C2229.34 459.793 2266.84 475.67 2303.57 493.154L2304.43 491.348C2267.65 473.84 2230.11 457.945 2192.91 443.041L2192.17 444.897Z"
      fill="url(#paint0_linear_323_1588)" mask="url(#path-1-inside-1_323_1588)" />
  </g>
  <defs>
    <filter id="filter0_b_323_1588" x="-9.83698" y="-9.86377" width="2323.84" height="512.115"
      filterUnits="userSpaceOnUse" color-interpolation-filters="sRGB">
      <feFlood flood-opacity="0" result="BackgroundImageFix" />
      <feGaussianBlur in="BackgroundImageFix" stdDeviation="5" />
      <feComposite in2="SourceAlpha" operator="in" result="effect1_backgroundBlur_323_1588" />
      <feBlend mode="normal" in="SourceGraphic" in2="effect1_backgroundBlur_323_1588" result="shape" />
    </filter>
    <linearGradient id="paint0_linear_323_1588" x1="379" y1="-46.4995" x2="2287" y2="482.001"
      gradientUnits="userSpaceOnUse">
      <stop stop-color="#106EBD" />
      <stop offset="1" stop-color="#10BCB3" />
    </linearGradient>
  </defs>
</svg>