<svg xmlns="http://www.w3.org/2000/svg" width="50" height="50" viewBox="0 0 50 50" fill="none">
  <path
    d="M1 25C1 11.7452 11.7452 1 25 1C38.2548 1 49 11.7452 49 25C49 38.2548 38.2548 49 25 49C11.7452 49 1 38.2548 1 25Z"
    stroke="white" stroke-width="2" />
  <path
    d="M29.8883 13.333H20.1116C15.8649 13.333 13.3333 15.8647 13.3333 20.1113V29.8763C13.3333 34.1347 15.8649 36.6663 20.1116 36.6663H29.8766C34.1233 36.6663 36.6549 34.1347 36.6549 29.888V20.1113C36.6666 15.8647 34.1349 13.333 29.8883 13.333ZM20.0416 21.663C20.0416 20.718 20.8116 19.9363 21.7683 19.9363C22.7133 19.9363 23.4949 20.7063 23.4949 21.663C23.4949 22.608 22.7249 23.3897 21.7683 23.3897C20.8116 23.378 20.0416 22.608 20.0416 21.663ZM21.2899 29.6897C21.0683 29.6897 20.8466 29.608 20.6716 29.433C20.3333 29.0947 20.3333 28.5463 20.6716 28.1963L28.3133 20.5547C28.6516 20.2163 29.2116 20.2163 29.5499 20.5547C29.8883 20.893 29.8883 21.453 29.5499 21.7913L21.9083 29.433C21.7333 29.608 21.5116 29.6897 21.2899 29.6897ZM29.3983 30.063C28.4533 30.063 27.6716 29.293 27.6716 28.3363C27.6716 27.3913 28.4416 26.6097 29.3983 26.6097C30.3433 26.6097 31.1249 27.3797 31.1249 28.3363C31.1249 29.293 30.3549 30.063 29.3983 30.063Z"
    fill="white" />
</svg>