<svg xmlns="http://www.w3.org/2000/svg" width="40" height="40" viewBox="0 0 40 40" fill="none">
  <g clip-path="url(#clip0_296_6193)">
    <path fill-rule="evenodd" clip-rule="evenodd"
      d="M20.0625 3.0625C14.0316 3.0625 9.125 7.96906 9.125 14C9.125 17.0538 10.3835 19.8188 12.4085 21.8049C13.1373 18.247 16.2923 15.5625 20.0625 15.5625C23.8327 15.5625 26.9877 18.247 27.7165 21.8049C29.694 19.8653 30.9406 17.183 30.9979 14.2142C30.8838 20.1905 26.0036 25 20 25C13.9249 25 9 20.0751 9 14C9 7.92487 13.9249 3 20 3C26.0751 3 31 7.92487 31 14C31 7.96906 26.0934 3.0625 20.0625 3.0625ZM15.375 23.375V23.8808C16.7965 24.5579 18.3859 24.9375 20.0625 24.9375C21.7391 24.9375 23.3285 24.5579 24.75 23.8808V23.375C24.75 20.7903 22.6472 18.6875 20.0625 18.6875C17.4778 18.6875 15.375 20.7903 15.375 23.375Z"
      fill="#2D9AD7" />
    <path
      d="M24.75 10.875C24.75 8.29031 22.6472 6.1875 20.0625 6.1875C17.4778 6.1875 15.375 8.29031 15.375 10.875C15.375 13.4597 17.4778 15.5625 20.0625 15.5625C22.6472 15.5625 24.75 13.4597 24.75 10.875ZM20.0625 12.4375C19.2009 12.4375 18.5 11.7366 18.5 10.875C18.5 10.0134 19.2009 9.3125 20.0625 9.3125C20.9241 9.3125 21.625 10.0134 21.625 10.875C21.625 11.7366 20.9241 12.4375 20.0625 12.4375Z"
      fill="#2D9AD7" />
    <path fill-rule="evenodd" clip-rule="evenodd"
      d="M15.3125 35.3125C15.3125 33.2755 16.6189 31.5387 18.4375 30.8937L18.4375 28.0377C16.5305 27.8259 14.7377 27.2314 13.1372 26.3327L8.53414 32.6384C9.06344 33.3974 9.375 34.3191 9.375 35.3125C9.375 37.8972 7.27219 40 4.6875 40C2.10281 40 2.50758e-08 37.8972 5.58979e-08 35.3125C8.672e-08 32.7278 2.10281 30.625 4.6875 30.625C5.14235 30.625 5.58164 30.6913 5.99781 30.8127L10.5982 24.5106C7.68766 21.889 5.9375 18.1366 5.9375 14.0625C5.9375 6.31109 12.2486 -3.30932e-07 20 -2.38498e-07C27.7541 -1.46031e-07 34.0625 6.30844 34.0625 14.0625C34.0625 18.2052 32.2615 21.9348 29.4018 24.5106L34.0022 30.8127C34.4184 30.6913 34.8577 30.625 35.3125 30.625C37.8972 30.625 40 32.7278 40 35.3125C40 37.8972 37.8972 40 35.3125 40C32.7278 40 30.625 37.8972 30.625 35.3125C30.625 34.3191 30.9366 33.3974 31.4659 32.6384L26.8628 26.3327C25.2623 27.2314 23.4695 27.8259 21.5625 28.0377L21.5625 30.8937C23.3811 31.5388 24.6875 33.2755 24.6875 35.3125C24.6875 37.8972 22.5847 40 20 40C17.4153 40 15.3125 37.8972 15.3125 35.3125ZM35.3125 36.875C36.1741 36.875 36.875 36.1741 36.875 35.3125C36.875 34.4509 36.1741 33.75 35.3125 33.75C34.4509 33.75 33.75 34.4509 33.75 35.3125C33.75 36.1741 34.4509 36.875 35.3125 36.875ZM3.125 35.3125C3.125 36.1741 3.82594 36.875 4.6875 36.875C5.54906 36.875 6.25 36.1741 6.25 35.3125C6.25 34.4509 5.54906 33.75 4.6875 33.75C3.82594 33.75 3.125 34.4509 3.125 35.3125ZM20 36.875C20.8616 36.875 21.5625 36.1741 21.5625 35.3125C21.5625 34.4509 20.8616 33.75 20 33.75C19.1384 33.75 18.4375 34.4509 18.4375 35.3125C18.4375 36.1741 19.1384 36.875 20 36.875ZM19.8571 24.9991C13.8478 24.9226 9 20.0274 9 14C9 7.92487 13.9249 3 20 3C26.0751 3 31 7.92487 31 14C31 20.0751 26.0751 25 20 25C19.9523 25 19.9046 24.9997 19.8571 24.9991Z"
      fill="black" />
  </g>
  <defs>
    <clipPath id="clip0_296_6193">
      <rect width="40" height="40" fill="white" />
    </clipPath>
  </defs>
</svg>