<svg width="48" height="48" viewBox="0 0 48 48" fill="none" xmlns="http://www.w3.org/2000/svg">
<circle cx="24" cy="24" r="24" fill="url(#paint0_radial_296_4514)"/>
<g clip-path="url(#clip0_296_4514)">
<path fill-rule="evenodd" clip-rule="evenodd" d="M33.2477 12.726C33.2472 12.2665 32.8206 11.9165 32.3655 12.0175L15.4541 15.7854H33.2497L33.2477 12.726Z" fill="white"/>
<path fill-rule="evenodd" clip-rule="evenodd" d="M29.5112 24.5589L24.6139 22.35C24.4306 22.2675 24.2141 22.2609 24.0164 22.35L19.1599 24.5399C18.885 24.644 18.6895 24.9098 18.6895 25.2212V29.1799C18.6895 30.7458 19.1457 32.2849 20.4434 33.2631L23.8685 35.8451C24.1218 36.0441 24.4865 36.0564 24.7557 35.8532L28.1887 33.2629C29.4853 32.2845 29.9409 30.7463 29.9409 29.1813L29.9399 25.222C29.9397 24.9448 29.7803 24.6801 29.5112 24.5589ZM27.5437 27.6547L24.5895 30.6089C24.4473 30.7511 24.2608 30.8223 24.0745 30.8223C23.8881 30.8223 23.7016 30.7512 23.5594 30.6089L22.1456 29.1951C21.8612 28.9107 21.8612 28.4494 22.1456 28.1649C22.4301 27.8805 22.8913 27.8805 23.1758 28.1649L24.0745 29.0637L26.5137 26.6246C26.7982 26.3402 27.2594 26.3401 27.5438 26.6246C27.8282 26.9091 27.8282 27.3703 27.5437 27.6547Z" fill="white"/>
<path fill-rule="evenodd" clip-rule="evenodd" d="M35.0078 25.3962C35.0078 26.3539 35.7135 27.1569 36.6296 27.3114V23.481C35.7134 23.6354 35.0078 24.4386 35.0078 25.3962Z" fill="white"/>
<path fill-rule="evenodd" clip-rule="evenodd" d="M35.9017 17.2422H12.7284C12.3261 17.2422 12 17.5683 12 17.9706V32.8216C12 33.2238 12.3261 33.55 12.7284 33.55H18.6483C18.2928 33.1225 18.0129 32.6523 17.7985 32.1531C17.3966 31.2174 17.2325 30.1957 17.2325 29.1798V25.2211C17.2325 24.7662 17.3766 24.3392 17.6228 23.9827C17.8554 23.6457 18.1809 23.3773 18.5624 23.214L23.4188 21.0239C23.7129 20.8914 24.0175 20.8286 24.3146 20.8286C24.6222 20.8286 24.9281 20.8964 25.2114 21.0239L30.1087 23.2328C30.4997 23.4089 30.8166 23.6943 31.0406 24.041C31.2674 24.3918 31.3907 24.8025 31.3909 25.2218L31.3977 29.1811C31.3977 30.1931 31.2338 31.2121 30.8321 32.1475C30.6166 32.6495 30.3363 33.1216 29.9811 33.5499H35.9017C36.304 33.5499 36.6301 33.2238 36.6301 32.8215V28.7798C34.9083 28.617 33.5515 27.159 33.5515 25.396C33.5515 23.6331 34.9083 22.1751 36.6301 22.0123V17.9706C36.6301 17.5683 36.304 17.2422 35.9017 17.2422Z" fill="white"/>
</g>
<defs>
<radialGradient id="paint0_radial_296_4514" cx="0" cy="0" r="1" gradientUnits="userSpaceOnUse" gradientTransform="rotate(45) scale(67.8823)">
<stop stop-color="#0FBDB3"/>
<stop offset="1" stop-color="#0F6ABD"/>
</radialGradient>
<clipPath id="clip0_296_4514">
<rect width="25" height="24" fill="white" transform="translate(12 12)"/>
</clipPath>
</defs>
</svg>
