<svg width="48" height="48" viewBox="0 0 48 48" fill="none" xmlns="http://www.w3.org/2000/svg">
<circle cx="24" cy="24" r="24" fill="url(#paint0_radial_296_4539)"/>
<g clip-path="url(#clip0_296_4539)">
<path d="M36 19.7647V16.1177C36 15.0131 35.1046 14.1177 34 14.1177H14C12.8954 14.1177 12 15.0131 12 16.1177V19.7647H36ZM20.4706 16.2353H21.8824V17.6471H20.4706V16.2353ZM17.6471 16.2353H19.0588V17.6471H17.6471V16.2353ZM14.8235 16.2353H16.2353V17.6471H14.8235V16.2353Z" fill="white"/>
<path d="M30.1176 27.1795L29.3929 26.9565C27.6793 26.4293 26.0648 25.622 24.6148 24.5675L24.0016 24.1216C22.3196 25.4672 20.3867 26.465 18.3155 27.0567L17.8857 27.1795V28.8296C17.8857 30.6923 18.5605 32.4853 19.7742 33.8824C19.8275 33.9438 23.7468 37.8823 23.7468 37.8823H24.2565C24.2565 37.8823 28.1813 33.9377 28.2352 33.8756C29.4451 32.4795 30.1176 30.6893 30.1176 28.8296V27.1795ZM23.7598 32.8845L21.5968 30.7216L22.5951 29.7234L23.7598 30.888L26.0891 28.5587L27.0873 29.557L23.7598 32.8845Z" fill="white"/>
<path d="M12 21.1765V31.8824C12 32.987 12.8954 33.8824 14 33.8824H18.0015C17.675 33.392 17.3964 32.8697 17.1681 32.3186C16.7076 31.2069 16.4741 30.033 16.4741 28.8296V27.1796V26.1147L17.498 25.8221L17.9278 25.6993C19.829 25.1561 21.5759 24.2544 23.1199 23.0192L23.961 22.3463L24.8321 22.9799L25.4453 23.4258C26.7721 24.3908 28.24 25.1247 29.8082 25.6072L30.5328 25.8302L31.5294 26.1369V27.1796V28.8296C31.5294 30.033 31.2959 31.2069 30.8354 32.3186C30.6072 32.8697 30.3285 33.392 30.0021 33.8824H34C35.1046 33.8824 36 32.987 36 31.8824V21.1765H12Z" fill="white"/>
</g>
<defs>
<radialGradient id="paint0_radial_296_4539" cx="0" cy="0" r="1" gradientUnits="userSpaceOnUse" gradientTransform="rotate(45) scale(67.8823)">
<stop stop-color="#0FBDB3"/>
<stop offset="1" stop-color="#0F6ABD"/>
</radialGradient>
<clipPath id="clip0_296_4539">
<rect width="24" height="24" fill="white" transform="translate(12 14)"/>
</clipPath>
</defs>
</svg>
