<svg xmlns="http://www.w3.org/2000/svg" width="50" height="50" viewBox="0 0 50 50" fill="none">
  <path
    d="M1 25C1 11.7452 11.7452 1 25 1C38.2548 1 49 11.7452 49 25C49 38.2548 38.2548 49 25 49C11.7452 49 1 38.2548 1 25Z"
    stroke="white" stroke-width="2" />
  <path
    d="M35.4501 17.7576L25.7857 12.9013C25.2914 12.6528 24.7086 12.6528 24.2142 12.9013L14.5499 17.7576C13.9557 18.056 13.5821 18.6597 13.5847 19.3247C13.5987 22.7162 14.402 33.0491 23.3812 36.9507C24.4076 37.397 25.5932 37.397 26.6196 36.9507C35.598 33.0491 36.4012 22.7162 36.4152 19.3247C36.4179 18.6597 36.0442 18.056 35.4501 17.7576ZM25 29.6305C22.4634 29.6305 20.4062 27.5733 20.4062 25.0367C20.4062 22.5001 22.4634 20.443 25 20.443C27.5366 20.443 29.5937 22.5001 29.5937 25.0367C29.5937 27.5733 27.5366 29.6305 25 29.6305Z"
    fill="white" />
  <path
    d="M26.0684 23.6411L24.4461 24.9475L24.0576 24.4514C23.7908 24.1101 23.2946 24.0489 22.9525 24.3175C22.6095 24.5861 22.55 25.0814 22.8186 25.4235L23.6998 26.547C23.8293 26.7132 24.02 26.8209 24.2291 26.8445C24.2589 26.848 24.2886 26.8497 24.3193 26.8497C24.4978 26.8497 24.6728 26.7885 24.8128 26.6756L27.0554 24.8687C27.3949 24.5957 27.4474 24.1005 27.1753 23.7619C26.904 23.4232 26.407 23.3672 26.0684 23.6411Z"
    fill="white" />
</svg>