<svg width="48" height="48" viewBox="0 0 48 48" fill="none" xmlns="http://www.w3.org/2000/svg">
<circle cx="24" cy="24" r="24" fill="url(#paint0_radial_296_4522)"/>
<path d="M34.2307 30.7304C33.4326 30.7304 32.6861 30.3378 32.234 29.6801L31.0483 27.9554C29.6515 30.4598 26.9963 32.0766 24 32.0766C19.8191 32.0766 16.3698 28.8831 15.9632 24.8074H16.7308C17.0307 24.8074 17.306 24.6412 17.4456 24.3757C17.5852 24.1103 17.5663 23.7892 17.3963 23.5421L16.2189 21.8295L14.4348 19.2344C14.2842 19.0153 14.0353 18.8843 13.7693 18.8843C13.736 18.8843 13.703 18.8863 13.6704 18.8903C13.6378 18.8943 13.6057 18.9003 13.5742 18.9081C13.4953 18.9278 13.4201 18.9591 13.351 19.0009C13.2543 19.0594 13.1696 19.1385 13.1037 19.2343L10.1421 23.5421C9.97221 23.7892 9.95323 24.1103 10.0928 24.3757C10.2325 24.6411 10.5078 24.8074 10.8077 24.8074H11.6412C11.8333 27.8114 13.0951 30.6093 15.2428 32.757C17.582 35.0961 20.692 36.3844 24 36.3844C27.3081 36.3844 30.4181 35.0961 32.7572 32.757C33.3791 32.1351 33.9297 31.453 34.4025 30.7238C34.3455 30.7278 34.2883 30.7304 34.2307 30.7304Z" fill="white"/>
<path d="M24.615 23.1919H23.3843C23.151 23.1919 22.9612 23.0021 22.9612 22.7688V22.1534C22.9612 21.9202 23.151 21.7304 23.3843 21.7304H24.615C24.8483 21.7304 25.0381 21.9202 25.0381 22.1534C25.0381 22.5995 25.3997 22.9611 25.8458 22.9611C26.2918 22.9611 26.6534 22.5995 26.6534 22.1534C26.6534 21.0944 25.8414 20.2216 24.8073 20.1244V19.692C24.8073 19.2459 24.4456 18.8843 23.9996 18.8843C23.5535 18.8843 23.1919 19.2459 23.1919 19.692V20.1244C22.1578 20.2216 21.3457 21.0944 21.3457 22.1534V22.7688C21.3457 23.8929 22.2601 24.8073 23.3842 24.8073H24.6149C24.8482 24.8073 25.038 24.9971 25.038 25.2304V25.8458C25.038 26.079 24.8482 26.2688 24.6149 26.2688H23.3842C23.1509 26.2688 22.9611 26.0791 22.9611 25.8458C22.9611 25.3997 22.5995 25.0381 22.1534 25.0381C21.7074 25.0381 21.3458 25.3998 21.3458 25.8458C21.3458 26.9049 22.1578 27.7777 23.1919 27.8749V28.3072C23.1919 28.7533 23.5536 29.1149 23.9996 29.1149C24.4457 29.1149 24.8073 28.7533 24.8073 28.3072V27.8748C25.8414 27.7776 26.6535 26.9048 26.6535 25.8458V25.2304C26.6534 24.1063 25.7391 23.1919 24.615 23.1919Z" fill="white"/>
<path d="M37.9072 23.6241C37.7676 23.3586 37.4923 23.1924 37.1924 23.1924H36.3589C36.1668 20.1883 34.905 17.3905 32.7573 15.2428C30.4182 12.9037 27.3081 11.6155 24.0001 11.6155C20.6921 11.6155 17.582 12.9037 15.2429 15.2428C14.6211 15.8647 14.0704 16.5469 13.5977 17.276C13.6546 17.272 13.7118 17.2693 13.7694 17.2693C14.5675 17.2693 15.314 17.662 15.7661 18.3197L16.9518 20.0444C18.3486 17.54 21.0038 15.9232 24.0001 15.9232C28.181 15.9232 31.6303 19.1167 32.0369 23.1924H31.2693C30.9694 23.1924 30.6941 23.3586 30.5545 23.6241C30.4149 23.8896 30.4338 24.2106 30.6037 24.4577L31.7812 26.1703L33.5653 28.7654C33.603 28.8202 33.6468 28.8695 33.6954 28.9126C33.8415 29.0419 34.0314 29.1156 34.2309 29.1156C34.4968 29.1156 34.7458 28.9846 34.8965 28.7654L35.9658 27.21L37.858 24.4578C38.0279 24.2105 38.0469 23.8895 37.9072 23.6241Z" fill="white"/>
<defs>
<radialGradient id="paint0_radial_296_4522" cx="0" cy="0" r="1" gradientUnits="userSpaceOnUse" gradientTransform="rotate(45) scale(67.8823)">
<stop stop-color="#0FBDB3"/>
<stop offset="1" stop-color="#0F6ABD"/>
</radialGradient>
</defs>
</svg>
