<svg width="48" height="48" viewBox="0 0 48 48" fill="none" xmlns="http://www.w3.org/2000/svg">
<circle cx="24" cy="24" r="24" fill="url(#paint0_radial_296_4535)"/>
<path d="M31.8941 14.6469L25.3286 12.1878C24.6481 11.9371 23.538 11.9371 22.8575 12.1878L16.292 14.6469C15.0266 15.1244 14 16.6046 14 17.9535V27.6227C14 28.5896 14.6327 29.8669 15.4086 30.4399L21.9742 35.3462C23.1321 36.2176 25.0301 36.2176 26.1881 35.3462L32.7536 30.4399C33.5295 29.855 34.1622 28.5896 34.1622 27.6227V17.9535C34.1741 16.6046 33.1475 15.1244 31.8941 14.6469ZM24.9824 25.0323V28.1718C24.9824 28.6613 24.5765 29.0671 24.0871 29.0671C23.5976 29.0671 23.1918 28.6613 23.1918 28.1718V25.0323C21.9861 24.6503 21.1027 23.5282 21.1027 22.2032C21.1027 20.5558 22.4397 19.2189 24.0871 19.2189C25.7344 19.2189 27.0714 20.5558 27.0714 22.2032C27.0714 23.5402 26.1881 24.6503 24.9824 25.0323Z" fill="white"/>
<defs>
<radialGradient id="paint0_radial_296_4535" cx="0" cy="0" r="1" gradientUnits="userSpaceOnUse" gradientTransform="rotate(45) scale(67.8823)">
<stop stop-color="#0FBDB3"/>
<stop offset="1" stop-color="#0F6ABD"/>
</radialGradient>
</defs>
</svg>
