<svg xmlns="http://www.w3.org/2000/svg" width="40" height="40" viewBox="0 0 40 40" fill="none">
  <path
    d="M35.3125 24.375C36.1755 24.375 36.875 23.6755 36.875 22.8125V16.875H38.4375C39.3005 16.875 40 16.1755 40 15.3125V9.0625C40 8.19953 39.3005 7.5 38.4375 7.5H36.875V1.5625C36.875 0.699531 36.1755 0 35.3125 0H7.5C4.91531 0 2.8125 2.10281 2.8125 4.6875V19.6875C2.8125 22.2722 4.91531 24.375 7.5 24.375H10.1105L7.14172 27.5H1.5625C0.699531 27.5 0 28.1995 0 29.0625V35.3125C0 36.1755 0.699531 36.875 1.5625 36.875H7.8125C8.67547 36.875 9.375 36.1755 9.375 35.3125V29.6863L14.4208 24.375H18.4375H16.875H23.125C22.125 24.375 23.988 24.375 23.125 24.375C23.625 24.375 23.988 24.375 23.125 24.375H21.5625H25.5792L30.625 29.6863V35.3125C30.625 36.1755 31.3245 36.875 32.1875 36.875H38.4375C39.3005 36.875 40 36.1755 40 35.3125V29.0625C40 28.1995 39.3005 27.5 38.4375 27.5H32.8583L29.8895 24.375H35.3125ZM6.25 33.75H3.125V30.625H6.25V33.75ZM33.75 30.625H36.875V33.75H33.75V30.625ZM36.875 13.75H29.0625C28.2009 13.75 27.5 13.0491 27.5 12.1875C27.5 11.3259 28.2009 10.625 29.0625 10.625H36.875V13.75ZM5.9375 19.6875V4.6875C5.9375 3.82594 6.63844 3.125 7.5 3.125H33.75V7.5H29.0625C26.4778 7.5 24.375 9.60281 24.375 12.1875C24.375 14.7722 26.4778 16.875 29.0625 16.875H33.75V21.25H7.5C6.63844 21.25 5.9375 20.5491 5.9375 19.6875Z"
    fill="#2D9AD7" />
  <path
    d="M35.3125 24.375C36.1755 24.375 36.875 23.6755 36.875 22.8125V16.875H38.4375C39.3005 16.875 40 16.1755 40 15.3125V9.0625C40 8.19953 39.3005 7.5 38.4375 7.5H36.875V1.5625C36.875 0.699531 36.1755 0 35.3125 0H7.5C4.91531 0 2.8125 2.10281 2.8125 4.6875V19.6875C2.8125 22.2722 4.91531 24.375 7.5 24.375H10.1105H14.4208H18.4375H16.875H23.125C22.125 24.375 23.988 24.375 23.125 24.375C23.625 24.375 23.988 24.375 23.125 24.375H21.5625H25.5792H30.625H29.8895H35.3125ZM36.875 13.75H29.0625C28.2009 13.75 27.5 13.0491 27.5 12.1875C27.5 11.3259 28.2009 10.625 29.0625 10.625H36.875V13.75ZM5.9375 19.6875V4.6875C5.9375 3.82594 6.63844 3.125 7.5 3.125H33.75V7.5H29.0625C26.4778 7.5 24.375 9.60281 24.375 12.1875C24.375 14.7722 26.4778 16.875 29.0625 16.875H33.75V21.25H7.5C6.63844 21.25 5.9375 20.5491 5.9375 19.6875Z"
    fill="black" />
</svg>