<svg xmlns="http://www.w3.org/2000/svg" width="50" height="50" viewBox="0 0 50 50" fill="none">
  <path
    d="M1 25C1 11.7452 11.7452 1 25 1C38.2548 1 49 11.7452 49 25C49 38.2548 38.2548 49 25 49C11.7452 49 1 38.2548 1 25Z"
    stroke="white" stroke-width="2" />
  <path
    d="M17.4242 14C15.6055 14 14.4337 15.9359 15.2821 17.5483L18.3851 23.4356L28.7957 24.6309L18.3851 25.8308L15.2821 31.7181C14.4337 33.3306 15.6008 35.2664 17.4242 35.2664C17.7523 35.2664 18.0804 35.2008 18.3851 35.0696L37.5938 26.773C39.4687 25.9621 39.4687 23.3044 37.5938 22.4934L18.3851 14.1969C18.0804 14.0656 17.7523 14 17.4242 14Z"
    fill="white" />
  <path
    d="M17.4242 14C15.6055 14 14.4337 15.9359 15.2821 17.5483L18.3851 23.4356L28.7957 24.6309L18.3851 25.8308L15.2821 31.7181C14.4337 33.3306 15.6008 35.2664 17.4242 35.2664C17.7523 35.2664 18.0804 35.2008 18.3851 35.0696L37.5938 26.773C39.4687 25.9621 39.4687 23.3044 37.5938 22.4934L18.3851 14.1969C18.0804 14.0656 17.7523 14 17.4242 14Z"
    fill="url(#paint0_linear_296_5746)" fill-opacity="0.5" />
  <path
    d="M17.4242 14C15.6055 14 14.4337 15.9359 15.2821 17.5483L18.3851 23.4356L28.7957 24.6309L18.3851 25.8308L15.2821 31.7181C14.4337 33.3306 15.6008 35.2664 17.4242 35.2664C17.7523 35.2664 18.0804 35.2008 18.3851 35.0696L37.5938 26.773C39.4687 25.9621 39.4687 23.3044 37.5938 22.4934L18.3851 14.1969C18.0804 14.0656 17.7523 14 17.4242 14Z"
    fill="url(#paint1_radial_296_5746)" fill-opacity="0.5" />
  <defs>
    <linearGradient id="paint0_linear_296_5746" x1="18.4729" y1="17.1524" x2="34.1899" y2="33.5883"
      gradientUnits="userSpaceOnUse">
      <stop stop-color="white" stop-opacity="0.47" />
      <stop offset="1" stop-color="white" stop-opacity="0" />
    </linearGradient>
    <radialGradient id="paint1_radial_296_5746" cx="0" cy="0" r="1" gradientUnits="userSpaceOnUse"
      gradientTransform="translate(24.0353 19.3541) rotate(50.6498) scale(12.4242 12.8102)">
      <stop stop-color="white" />
      <stop offset="1" stop-color="white" stop-opacity="0" />
    </radialGradient>
  </defs>
</svg>