<svg xmlns="http://www.w3.org/2000/svg" width="50" height="50" viewBox="0 0 50 50" fill="none">
  <path
    d="M1 25C1 11.7452 11.7452 1 25 1C38.2548 1 49 11.7452 49 25C49 38.2548 38.2548 49 25 49C11.7452 49 1 38.2548 1 25Z"
    stroke="white" stroke-width="2" />
  <path fill-rule="evenodd" clip-rule="evenodd"
    d="M25.3605 13.0061C23.1089 12.9311 20.834 13.5454 18.8699 14.8565C16.664 16.3305 15.1224 18.5072 14.4123 20.9405C14.2162 20.9165 13.9814 20.9271 13.7026 21.006C12.6616 21.3013 11.8787 22.1543 11.5266 22.9056C11.07 23.8846 10.8775 25.1794 11.0806 26.5162C11.2823 27.8486 11.8452 28.947 12.5493 29.6289C13.2555 30.3112 14.0529 30.533 14.845 30.3665C16.0243 30.1148 16.6091 29.9264 16.444 28.8277L15.6445 23.5016C15.8057 20.6191 17.298 17.9055 19.794 16.2368C23.1349 14.0052 27.5151 14.1481 30.7018 16.5945C32.9186 18.2942 34.2057 20.8409 34.3542 23.5143L33.7952 27.24C32.5482 30.6523 29.4569 33.0159 25.8798 33.3514H23.4979C22.8832 33.3514 22.3882 33.8464 22.3882 34.4604V35.0455C22.3882 35.6598 22.8832 36.1548 23.4979 36.1548H26.5012C27.1155 36.1548 27.6084 35.6598 27.6084 35.0455V34.7396C30.3057 34.0812 32.6602 32.4235 34.1933 30.1116L35.1555 30.3668C35.9384 30.5699 36.7453 30.3112 37.4511 29.6293C38.1552 28.947 38.7178 27.849 38.9199 26.5165C39.1237 25.1798 38.9255 23.8871 38.4742 22.9059C38.0211 21.9248 37.3462 21.3017 36.5672 21.0781C36.2408 20.9841 35.8867 20.9496 35.5829 20.9405C34.9407 18.7402 33.6188 16.7392 31.7135 15.2782C29.8403 13.8408 27.6122 13.08 25.3605 13.0061Z"
    fill="white" />
  <path fill-rule="evenodd" clip-rule="evenodd"
    d="M28.8757 22.588C29.6696 22.588 30.3131 23.2316 30.3149 24.0276C30.3131 24.8214 29.6696 25.4667 28.8757 25.4667C28.0797 25.4667 27.4344 24.8214 27.4344 24.0276C27.4344 23.2319 28.0801 22.588 28.8757 22.588ZM24.9997 22.588C25.7953 22.588 26.4389 23.2316 26.4389 24.0276C26.4389 24.8214 25.7953 25.4667 24.9997 25.4667C24.2034 25.4667 23.5598 24.8214 23.5598 24.0276C23.5598 23.2319 24.2034 22.588 24.9997 22.588ZM21.1251 22.588C21.919 22.588 22.5643 23.2316 22.5643 24.0276C22.5643 24.8214 21.919 25.4667 21.1251 25.4667C20.3295 25.4667 19.6856 24.8214 19.6856 24.0276C19.6856 23.2319 20.3295 22.588 21.1251 22.588ZM24.9997 16.4055C20.7787 16.4055 17.3772 19.695 17.3772 24.0276C17.3772 26.1085 18.1641 27.9476 19.4459 29.297L18.991 31.336C18.841 32.007 19.3064 32.4583 19.9095 32.1225L21.9007 31.0118C22.847 31.4226 23.8936 31.6497 24.9997 31.6497C29.2221 31.6497 32.6215 28.3623 32.6215 24.0276C32.6215 19.695 29.2221 16.4055 24.9997 16.4055Z"
    fill="white" />
</svg>