<svg xmlns="http://www.w3.org/2000/svg" width="72" height="72" viewBox="0 0 72 72" fill="none">
  <path fill-rule="evenodd" clip-rule="evenodd"
    d="M36 72C16.2 72 0 55.8003 0 35.8207C0.18 16.0212 16.2 -0.178511 36.18 0.00148561C55.98 0.181482 72 16.2012 72 36.3607C71.82 55.9803 55.8 72 36 72Z"
    fill="#FC070C" />
  <path fill-rule="evenodd" clip-rule="evenodd"
    d="M58.3415 25.2181L58.3414 25.218C56.6741 23.5992 54.9124 21.8887 53.3576 20.5086L53.2001 20.3984C52.938 20.188 52.6426 20.0229 52.326 19.9101L51.126 19.6863C42.8462 18.1413 16.0074 13.1335 15.4553 13.2007C15.292 13.2235 15.136 13.2827 14.9986 13.3739L14.849 13.492C14.6647 13.6791 14.5248 13.9052 14.4395 14.1535L14.4001 14.2559V14.815V14.9017C16.2222 19.9754 20.9556 31.3064 25.3261 41.7687L25.3261 41.7688L25.3261 41.7688L25.3262 41.769C29.0211 50.6141 32.4567 58.8383 33.6544 62.1358L33.6548 62.1371C33.8125 62.6257 34.1117 63.5533 34.6703 63.6005H34.7963C35.0955 63.6005 36.3713 61.9153 36.3713 61.9153C36.3713 61.9153 59.1772 34.2583 61.4846 31.3131C61.7832 30.9503 62.0469 30.5601 62.2721 30.1476C62.389 29.4912 62.1528 28.8215 61.6499 28.3836C60.6675 27.4765 59.5284 26.3705 58.3415 25.2181ZM42.2223 31.6049L51.9558 23.533L57.6652 28.7935L42.2223 31.6049ZM21.6844 17.3426L38.4423 31.0765L48.7979 22.3432L21.6844 17.3426ZM39.9543 34.676L57.106 31.9119L37.4973 55.5368L39.9543 34.676ZM37.0406 33.6751L19.4086 18.7127L34.4891 55.5518L37.0406 33.6751Z"
    fill="white" />
</svg>