<svg xmlns="http://www.w3.org/2000/svg" width="72" height="72" viewBox="0 0 72 72" fill="none">
  <path
    d="M70.9148 44.7086C66.1068 63.9945 46.5733 75.7315 27.2851 70.9222C8.005 66.1142 -3.73202 46.5794 1.07815 27.2951C5.8841 8.00709 25.4176 -3.73082 44.6998 1.07724C63.9866 5.8853 75.7229 25.4221 70.9143 44.7089L70.9147 44.7086H70.9148Z"
    fill="#50AF95" />
  <path fill-rule="evenodd" clip-rule="evenodd"
    d="M40.5554 40.0813C40.3009 40.1004 38.9857 40.1789 36.052 40.1789C33.7186 40.1789 32.0618 40.1089 31.4806 40.0813C22.4631 39.6846 15.7323 38.1149 15.7323 36.2355C15.7323 34.356 22.4631 32.7884 31.4806 32.3854V38.5179C32.0703 38.5604 33.7589 38.6601 36.0923 38.6601C38.8923 38.6601 40.2945 38.5434 40.5469 38.5201V32.3896C49.5454 32.7905 56.2613 34.3603 56.2613 36.2355C56.2613 38.1107 49.5475 39.6804 40.5469 40.0792L40.5554 40.0813ZM40.5554 31.7553V26.2676H53.1133V17.8992H18.9227V26.2676H31.4785V31.7532C21.2731 32.222 13.5983 34.2436 13.5983 36.6661C13.5983 39.0886 21.2731 41.108 31.4785 41.5789V59.1643H40.5533V41.5726C50.7354 41.1038 58.3974 39.0843 58.3974 36.664C58.3974 34.2436 50.7418 32.2241 40.5533 31.7532L40.5554 31.7553Z"
    fill="white" />
</svg>