<svg xmlns="http://www.w3.org/2000/svg" width="50" height="50" viewBox="0 0 50 50" fill="none">
  <path
    d="M1 25C1 11.7452 11.7452 1 25 1C38.2548 1 49 11.7452 49 25C49 38.2548 38.2548 49 25 49C11.7452 49 1 38.2548 1 25Z"
    stroke="white" stroke-width="2" />
  <path
    d="M16.8333 27.6251C14.255 27.6251 12.1667 29.7135 12.1667 32.2918C12.1667 33.1668 12.4117 33.9951 12.8433 34.6951C13.6483 36.0485 15.13 36.9585 16.8333 36.9585C18.5367 36.9585 20.0183 36.0485 20.8233 34.6951C21.255 33.9951 21.5 33.1668 21.5 32.2918C21.5 29.7135 19.4117 27.6251 16.8333 27.6251ZM18.5717 33.1435H17.7083V34.0535C17.7083 34.5318 17.3117 34.9285 16.8333 34.9285C16.355 34.9285 15.9583 34.5318 15.9583 34.0535V33.1435H15.095C14.6167 33.1435 14.22 32.7468 14.22 32.2685C14.22 31.7901 14.6167 31.3935 15.095 31.3935H15.9583V30.5651C15.9583 30.0868 16.355 29.6901 16.8333 29.6901C17.3117 29.6901 17.7083 30.0868 17.7083 30.5651V31.3935H18.5717C19.05 31.3935 19.4467 31.7901 19.4467 32.2685C19.4467 32.7468 19.0617 33.1435 18.5717 33.1435Z"
    fill="white" />
  <path
    d="M36.0833 24.7084H33.1667C31.8833 24.7084 30.8333 25.7584 30.8333 27.0417C30.8333 28.325 31.8833 29.375 33.1667 29.375H36.0833C36.41 29.375 36.6667 29.1184 36.6667 28.7917V25.2917C36.6667 24.965 36.41 24.7084 36.0833 24.7084Z"
    fill="white" />
  <path
    d="M30.2841 16.4253C30.6341 16.7636 30.3424 17.2886 29.8524 17.2886L20.1924 17.2769C19.6324 17.2769 19.3524 16.6003 19.7491 16.2036L21.7908 14.1503C23.5174 12.4353 26.3057 12.4353 28.0324 14.1503L30.2374 16.3786C30.2491 16.3903 30.2724 16.4136 30.2841 16.4253Z"
    fill="white" />
  <path
    d="M36.5143 31.8951C35.8026 34.2984 33.7493 35.7917 30.9493 35.7917H23.366C22.911 35.7917 22.6193 35.2901 22.806 34.8701C23.156 34.0534 23.3776 33.1317 23.3776 32.2917C23.3776 28.7567 20.496 25.8751 16.961 25.8751C16.0743 25.8751 15.211 26.0617 14.4176 26.4117C13.986 26.5984 13.461 26.3067 13.461 25.8401V24.1251C13.461 20.9517 15.3743 18.7351 18.3493 18.3617C18.641 18.3151 18.9559 18.2917 19.2826 18.2917H30.9493C31.2526 18.2917 31.5443 18.3034 31.8243 18.3501C34.181 18.6184 35.8843 20.0534 36.5143 22.1884C36.631 22.5734 36.351 22.9584 35.9543 22.9584H33.2826C30.751 22.9584 28.7443 25.2684 29.2926 27.8934C29.6776 29.8067 31.451 31.1251 33.3993 31.1251H35.9543C36.3626 31.1251 36.631 31.5217 36.5143 31.8951Z"
    fill="white" />
</svg>