<svg xmlns="http://www.w3.org/2000/svg" width="40" height="40" viewBox="0 0 40 40" fill="none">
  <path
    d="M29.375 9.0625H12.1875C9.60281 9.0625 7.5 11.1653 7.5 13.75V26.25C7.5 28.8347 9.60281 30.9375 12.1875 30.9375H29.375C30.238 30.9375 30.9375 30.238 30.9375 29.375V24.6875H32.5C33.363 24.6875 34.0625 23.988 34.0625 23.125V16.875C34.0625 16.012 33.363 15.3125 32.5 15.3125H30.9375V10.625C30.9375 9.76203 30.238 9.0625 29.375 9.0625ZM27.8125 27.8125H12.1875C11.3259 27.8125 10.625 27.1116 10.625 26.25V13.75C10.625 12.8884 11.3259 12.1875 12.1875 12.1875H27.8125V15.3125H26.25C23.6653 15.3125 21.5625 17.4153 21.5625 20C21.5625 22.5847 23.6653 24.6875 26.25 24.6875H27.8125V27.8125ZM30.9375 21.5625H26.25C25.3884 21.5625 24.6875 20.8616 24.6875 20C24.6875 19.1384 25.3884 18.4375 26.25 18.4375H30.9375V21.5625Z"
    fill="black" />
  <path
    d="M20 0C16.0943 0 12.308 1.11836 9.0625 3.19414V1.5625C9.0625 0.699531 8.36297 0 7.5 0C6.63703 0 5.9375 0.699531 5.9375 1.5625V6.33687C5.9375 6.95312 6.29977 7.5118 6.86234 7.76328C7.42508 8.01477 8.08289 7.91211 8.54203 7.50109C11.695 4.67914 15.7641 3.125 20 3.125C29.4627 3.125 36.875 10.5373 36.875 20C36.875 23.0225 36.08 25.9942 34.5759 28.5939C34.1437 29.3409 34.3988 30.2967 35.1458 30.7288C35.8927 31.1609 36.8486 30.9058 37.2807 30.1589C39.0597 27.0842 40 23.5713 40 20C40 8.785 31.2149 0 20 0Z"
    fill="#2D9AD7" />
  <path
    d="M33.1377 32.2371C32.575 31.9856 31.9172 32.0883 31.458 32.4993C28.305 35.3213 24.2358 36.8755 20 36.8755C10.5373 36.8755 3.125 29.4631 3.125 20.0005C3.125 17.06 3.87984 14.1589 5.30781 11.6109C5.72969 10.8581 5.46148 9.9058 4.70867 9.48392C3.95602 9.06205 3.00359 9.33025 2.58172 10.0831C0.892735 13.0968 0 16.5262 0 20.0005C0 31.2154 8.78508 40.0005 20 40.0005C23.9057 40.0005 27.692 38.8821 30.9375 36.8063V38.438C30.9375 39.301 31.637 40.0005 32.5 40.0005C33.3629 40.0005 34.0625 39.3009 34.0625 38.438V33.6636C34.0625 33.0474 33.7003 32.4887 33.1377 32.2371Z"
    fill="#2D9AD7" />
</svg>