<svg xmlns="http://www.w3.org/2000/svg" width="1154" height="877" viewBox="0 0 1154 877" fill="none">
  <g filter="url(#filter0_b_323_1591)">
    <mask id="path-1-inside-1_323_1591" fill="white">
      <path
        d="M14.4732 0.893431C-19.9268 93.9249 10.7498 202.623 75.3394 277.549C139.929 352.475 234.197 397.212 330.617 419.3C370.767 428.687 412.642 434.676 448.61 454.866C484.577 475.055 514.711 513.256 509.732 554.036C502.828 613.153 431.816 646.583 419.103 704.559C411.867 737.803 425.976 773.092 449.381 797.612C472.785 822.131 504.269 837.879 536.384 849.22C646.732 888.345 771.299 884.446 880.868 843.346C990.838 802.149 1085.7 725.055 1153.41 629.032" />
    </mask>
    <path
      d="M330.617 419.3L330.845 418.326L330.841 418.325L330.617 419.3ZM509.732 554.036L508.739 553.915L508.739 553.92L509.732 554.036ZM419.103 704.559L418.127 704.345L418.126 704.346L419.103 704.559ZM536.384 849.22L536.718 848.277L536.717 848.277L536.384 849.22ZM880.868 843.346L880.517 842.41L880.516 842.41L880.868 843.346ZM13.5353 0.546614C-21.0189 93.9949 9.81255 203.067 74.582 278.202L76.0968 276.896C11.6871 202.179 -18.8347 93.8549 15.4112 1.24025L13.5353 0.546614ZM74.582 278.202C139.355 353.341 233.842 398.157 330.394 420.275L330.841 418.325C234.551 396.267 140.503 351.61 76.0968 276.896L74.582 278.202ZM330.39 420.274C370.662 429.69 412.315 435.639 448.12 455.738L449.099 453.994C412.97 433.713 370.871 427.685 330.845 418.326L330.39 420.274ZM448.12 455.738C483.912 475.829 513.649 513.708 508.739 553.915L510.725 554.157C515.774 512.805 485.242 474.282 449.099 453.994L448.12 455.738ZM508.739 553.92C505.329 583.122 486.082 606.035 465.845 629.065C445.693 651.999 424.549 675.053 418.127 704.345L420.08 704.773C426.37 676.089 447.089 653.44 467.347 630.385C487.521 607.427 507.232 584.067 510.725 554.152L508.739 553.92ZM418.126 704.346C410.802 737.997 425.088 773.61 448.657 798.302L450.104 796.921C426.864 772.574 412.933 737.609 420.081 704.772L418.126 704.346ZM448.657 798.302C472.218 822.985 503.871 838.799 536.051 850.163L536.717 848.277C504.668 836.96 473.353 821.277 450.104 796.921L448.657 798.302ZM536.049 850.162C646.635 889.372 771.446 885.459 881.219 844.282L880.516 842.41C771.153 883.432 646.829 887.319 536.718 848.277L536.049 850.162ZM881.218 844.283C991.393 803.009 1086.41 725.78 1154.23 629.608L1152.59 628.456C1084.99 724.329 990.282 801.289 880.517 842.41L881.218 844.283Z"
      fill="url(#paint0_linear_323_1591)" mask="url(#path-1-inside-1_323_1591)" />
  </g>
  <defs>
    <filter id="filter0_b_323_1591" x="-9.80301" y="-9.10645" width="1173.21" height="895.585"
      filterUnits="userSpaceOnUse" color-interpolation-filters="sRGB">
      <feFlood flood-opacity="0" result="BackgroundImageFix" />
      <feGaussianBlur in="BackgroundImageFix" stdDeviation="5" />
      <feComposite in2="SourceAlpha" operator="in" result="effect1_backgroundBlur_323_1591" />
      <feBlend mode="normal" in="SourceGraphic" in2="effect1_backgroundBlur_323_1591" result="shape" />
    </filter>
    <linearGradient id="paint0_linear_323_1591" x1="96.1352" y1="509.494" x2="1066.99" y2="273.503"
      gradientUnits="userSpaceOnUse">
      <stop stop-color="#106EBD" />
      <stop offset="1" stop-color="#10BCB3" />
    </linearGradient>
  </defs>
</svg>