<svg xmlns="http://www.w3.org/2000/svg" width="48" height="48" viewBox="0 0 48 48" fill="none">
  <path d="M2.79874 29.2774C0.625389 27.104 0.628458 23.5772 2.8056 21.4001L22.5159 1.68979C24.693 -0.487344 28.2198 -0.490411 30.3931 1.68294L45.1502 16.44C47.3235 18.6133 47.3204 22.1401 45.1433 24.3172L21.491 47.9696L2.79874 29.2774Z" fill="url(#paint0_linear_357_4115)"/>
  <path d="M19.1455 22.7206C20.5933 24.1684 20.5933 26.5158 19.1455 27.9636C17.6977 29.4113 15.3503 29.4113 13.9025 27.9636C12.4547 26.5158 12.4547 24.1684 13.9025 22.7206C15.3503 21.2728 17.6977 21.2728 19.1455 22.7206Z" fill="white"/>
  <path d="M29.0795 12.7868C30.5273 14.2346 30.5273 16.5819 29.0795 18.0297C27.6317 19.4775 25.2843 19.4775 23.8365 18.0297C22.3887 16.5819 22.3887 14.2346 23.8365 12.7868C25.2843 11.339 27.6317 11.339 29.0795 12.7868Z" fill="white"/>
  <path d="M32.6305 36.8301L21.4909 47.9696L36.8657 43.8282C38.3523 43.4278 38.7366 41.4965 37.5154 40.5633L32.6305 36.8301Z" fill="#10B4B5"/>
  <defs>
  <linearGradient id="paint0_linear_357_4115" x1="38.0732" y1="5.15288" x2="4.08846" y2="37.4983" gradientUnits="userSpaceOnUse">
  <stop stop-color="#0FBDB3"/>
  <stop offset="1" stop-color="#0F6ABD"/>
  </linearGradient>
  </defs>
</svg>