<svg xmlns="http://www.w3.org/2000/svg" width="14" height="10" viewBox="0 0 14 10" fill="none">
  <path
    d="M2.73204 1.66659L6.56337 5.07992C6.68546 5.18863 6.84324 5.24869 7.00671 5.24869C7.17018 5.24869 7.32795 5.18863 7.45004 5.07992L11.282 1.66659H2.73204ZM12.3334 2.51525L8.33737 6.07592C7.97103 6.40241 7.49743 6.58283 7.00671 6.58283C6.51599 6.58283 6.04239 6.40241 5.67604 6.07592L1.66671 2.50259V8.33325H12.3334V2.51525ZM1.66671 0.333252H12.3334C12.687 0.333252 13.0261 0.473728 13.2762 0.723776C13.5262 0.973825 13.6667 1.31296 13.6667 1.66659V8.33325C13.6667 8.68687 13.5262 9.02601 13.2762 9.27606C13.0261 9.52611 12.687 9.66659 12.3334 9.66659H1.66671C1.31309 9.66659 0.973947 9.52611 0.723898 9.27606C0.47385 9.02601 0.333374 8.68687 0.333374 8.33325V1.66659C0.333374 1.31296 0.47385 0.973825 0.723898 0.723776C0.973947 0.473728 1.31309 0.333252 1.66671 0.333252V0.333252Z"
    fill="white" />
</svg>